<svg width="96" height="96" xmlns="http://www.w3.org/2000/svg" xmlns:xlink="http://www.w3.org/1999/xlink" xml:space="preserve" overflow="hidden"><g><path d="M60 27C60 35.8366 52.8366 43 44 43 35.1634 43 28 35.8366 28 27 28 18.1634 35.1634 11 44 11 52.8365 11 60 18.1634 60 27Z" fill="#8DD872"/><path d="M50 71C50.0167 61.7134 56.7388 53.7973 65.9 52.276 63.0999 50.9351 60.1891 49.839 57.2 49 52.9217 47.6904 48.4742 47.0165 44 47 39.5307 47.0771 35.0916 47.7497 30.8 49 25.2073 50.6321 19.9323 53.2019 15.2 56.6 13.227 58.1451 12.0522 60.4946 12 63L12 79 51.79 79C50.6142 76.4968 50.0031 73.7656 50 71Z" fill="#8DD872"/><path d="M69 56C60.7157 56 54 62.7157 54 71 54 79.2843 60.7157 86 69 86 77.2843 86 84 79.2843 84 71 84 62.7157 77.2843 56 69 56ZM76 72 70.5 72 70.5 77.5 67.5 77.5 67.5 72 62 72 62 69 67.5 69 67.5 63.5 70.5 63.5 70.5 69 76 69Z" fill="#8DD872"/></g></svg>