<svg width="96" height="96" xmlns="http://www.w3.org/2000/svg" xmlns:xlink="http://www.w3.org/1999/xlink" xml:space="preserve" overflow="hidden"><g><path d="M44.692 24.384C45.2413 24.7013 45.7777 25.0253 46.301 25.356 46.1717 24.362 46.0143 23.4217 45.829 22.535 44.959 22.828 44.07 23.165 43.17 23.545 43.676 23.814 44.184 24.091 44.692 24.384Z" fill="#E46C0A"/><path d="M45.368 20.61C44.125 16.065 42.225 13.441 40.738 13.441 39.251 13.441 37.375 16.033 36.132 20.525 37.7504 21.0527 39.335 21.6789 40.877 22.4 42.3383 21.7174 43.8378 21.1197 45.368 20.61Z" fill="#E46C0A"/><path d="M36.785 38.08C36.235 37.7633 35.6983 37.4393 35.175 37.108 35.312 38.165 35.482 39.164 35.681 40.097 36.616 39.797 37.575 39.448 38.549 39.047 37.962 38.739 37.373 38.42 36.785 38.08Z" fill="#E46C0A"/><path d="M38.584 23.545C37.593 23.128 36.617 22.761 35.665 22.445 35.465 23.412 35.286 24.445 35.149 25.545 35.769 25.149 36.4067 24.761 37.062 24.381 37.57 24.091 38.077 23.814 38.584 23.545Z" fill="#E46C0A"/><path d="M29.311 32.728C26.137 35.996 24.879 38.865 25.611 40.128 26.034 40.86 27.337 41.281 29.185 41.281 30.7385 41.2515 32.2829 41.0356 33.785 40.638 33.4361 39.0019 33.1863 37.3462 33.037 35.68 31.7397 34.7679 30.4957 33.7823 29.311 32.728Z" fill="#E46C0A"/><path d="M33.015 26.994C33.1606 25.28 33.4124 23.5768 33.769 21.894 32.1834 21.457 30.5494 21.2191 28.905 21.186 27.057 21.186 25.754 21.607 25.331 22.34 24.582 23.64 25.931 26.626 29.293 30.004 30.4741 28.9292 31.7169 27.9242 33.015 26.994Z" fill="#E46C0A"/><path d="M30.731 31.355C31.387 31.937 32.099 32.5227 32.867 33.112 32.8443 32.4933 32.8323 31.8667 32.831 31.232 32.831 30.672 32.843 30.12 32.861 29.572 32.093 30.169 31.381 30.766 30.731 31.355Z" fill="#E46C0A"/><path d="M36.153 42.018C37.397 46.461 39.269 49.023 40.738 49.023 42.207 49.023 44.101 46.431 45.345 41.939 43.823 41.4437 42.3311 40.86 40.877 40.191 39.3414 40.8966 37.7637 41.5067 36.153 42.018Z" fill="#E46C0A"/><path d="M81.005 49.3 74.105 37.3 74.105 36.8C74.7106 20.2038 61.7477 6.25906 45.1515 5.65346 28.5554 5.04786 14.6106 18.0108 14.005 34.6069 13.9783 35.3377 13.9783 36.0692 14.005 36.8 13.9662 46.2616 18.3265 55.2039 25.805 61L25.805 86.3 57.405 86.3 57.405 74.3 62.305 74.3C68.822 74.3009 74.1058 69.0187 74.1067 62.5017 74.1067 62.4345 74.1061 62.3672 74.105 62.3L74.105 56.3 78.505 56.3C81.105 56 83.405 53 81.005 49.3ZM57.858 41.116C57.022 42.563 55.125 43.258 52.571 43.258 50.768 43.2238 48.9762 42.9654 47.237 42.489 45.809 47.631 43.431 51 40.738 51 38.045 51 35.688 47.659 34.258 42.553 32.6003 42.9905 30.8961 43.2272 29.182 43.258 26.628 43.258 24.731 42.558 23.896 41.116 22.566 38.816 24.236 35.133 27.879 31.375 24.042 27.518 22.255 23.71 23.619 21.348 24.454 19.901 26.351 19.207 28.905 19.207 30.7083 19.2409 32.5004 19.4988 34.24 19.975 35.667 14.833 38.045 11.464 40.74 11.464 43.435 11.464 45.833 14.864 47.259 20.045 49.0792 19.5278 50.9582 19.2462 52.85 19.207 55.404 19.207 57.301 19.901 58.137 21.348 59.5 23.71 57.713 27.518 53.876 31.375 57.517 35.133 59.188 38.813 57.858 41.116Z" fill="#E46C0A"/><path d="M52.848 21.183C51.113 21.2204 49.3901 21.4816 47.722 21.96 48.0561 23.5525 48.2965 25.1633 48.442 26.784 49.8468 27.7715 51.1888 28.8456 52.46 30 55.826 26.622 57.172 23.632 56.423 22.336 56 21.6 54.7 21.183 52.848 21.183Z" fill="#E46C0A"/><path d="M43.205 39.047C44.088 39.411 44.96 39.736 45.812 40.015 45.9913 39.161 46.146 38.2547 46.276 37.296 45.847 37.561 45.413 37.823 44.969 38.08 44.38 38.42 43.792 38.739 43.205 39.047Z" fill="#E46C0A"/><path d="M51.022 31.355C50.292 30.694 49.486 30.023 48.609 29.355 48.6317 29.9737 48.6437 30.6 48.645 31.234 48.645 31.942 48.6303 32.642 48.601 33.334 49.4803 32.67 50.2873 32.0103 51.022 31.355Z" fill="#E46C0A"/><path d="M48.422 35.889C48.2743 37.4628 48.0359 39.0267 47.708 40.573 49.2933 41.01 50.9269 41.2479 52.571 41.281 54.42 41.281 55.723 40.86 56.146 40.128 56.875 38.865 55.617 35.996 52.446 32.728 51.1704 33.8628 49.8266 34.9184 48.422 35.889Z" fill="#E46C0A"/><path d="M43.7 26.1C42.761 25.558 41.816 25.057 40.874 24.6 39.932 25.062 38.986 25.563 38.047 26.1 36.927 26.747 35.882 27.409 34.909 28.077 34.842 29.089 34.809 30.142 34.809 31.236 34.809 32.402 34.851 33.52 34.927 34.592 35.817 35.192 36.764 35.792 37.774 36.372 38.805 36.967 39.844 37.515 40.874 38.013 41.907 37.513 42.946 36.967 43.974 36.372 44.874 35.853 45.726 35.323 46.53 34.789 46.615 33.658 46.663 32.474 46.663 31.236 46.663 30.07 46.62 28.952 46.545 27.88 45.66 27.275 44.713 26.679 43.7 26.1ZM40.735 34.2C39.0975 34.2 37.77 32.8725 37.77 31.235 37.77 29.5975 39.0975 28.27 40.735 28.27 42.3714 28.27 43.6983 29.5956 43.7 31.232 43.7022 32.869 42.377 34.1978 40.74 34.2 40.7393 34.2 40.7387 34.2 40.738 34.2Z" fill="#E46C0A"/></g></svg>