<svg width="49" height="49" xmlns="http://www.w3.org/2000/svg" xmlns:xlink="http://www.w3.org/1999/xlink" xml:space="preserve" overflow="hidden"><defs><clipPath id="clip0"><rect x="0" y="0" width="49" height="49"/></clipPath></defs><g clip-path="url(#clip0)"><path d="M44.402 44.9847 41.3876 41.9704C41.8362 40.3671 40.9002 38.7038 39.2969 38.2552 38.2534 37.9632 37.1335 38.2538 36.3636 39.0163 34.4344 41.0259 29.33 45.5575 23.6127 45.5575 17.8954 45.5575 12.8011 40.9857 10.8719 39.0163 9.68898 37.8449 7.7804 37.8541 6.60896 39.0371 5.8465 39.8069 5.55594 40.9269 5.84792 41.9704L2.83353 44.9847C1.65984 46.1778 1.67559 48.0965 2.86869 49.2702 4.0618 50.4439 5.98047 50.4281 7.15415 49.235L10.048 46.3412C10.7614 46.8838 11.5451 47.4365 12.3891 47.979L10.5102 51.7269C9.78225 53.2093 10.3826 55.0014 11.8566 55.7461 12.2735 55.9588 12.735 56.0691 13.203 56.0677 14.3476 56.0699 15.3947 55.4238 15.9059 54.3997L17.805 50.5915C18.7223 50.9088 19.663 51.1541 20.6184 51.325L20.6184 55.2638C20.6184 56.9287 21.968 58.2782 23.6328 58.2782 25.2977 58.2782 26.6472 56.9287 26.6472 55.2638L26.6472 51.3451C27.606 51.1742 28.55 50.9289 29.4707 50.6116L31.3698 54.4198C31.881 55.4439 32.9281 56.09 34.0727 56.0878 34.5407 56.0892 35.0022 55.9789 35.4191 55.7662 36.8931 55.0215 37.4935 53.2294 36.7655 51.747L34.8865 47.9891C35.7306 47.4566 36.5143 46.9039 37.2277 46.3613L40.1919 49.235C41.4099 50.37 43.3173 50.3026 44.4522 49.0846 45.531 47.927 45.531 46.1323 44.4522 44.9747Z" transform="matrix(1.00002 0 0 1 -47.4624 -21.9255)"/><path d="M93.5667 44.9847 90.5523 41.9704C91.0009 40.3671 90.0649 38.7038 88.4616 38.2552 87.4181 37.9632 86.2983 38.2538 85.5283 39.0163 83.5991 41.0259 78.4947 45.5575 72.7875 45.5575 67.0802 45.5575 61.996 41.0158 60.0667 39.0464 58.8838 37.8749 56.9753 37.8843 55.8038 39.0672 55.0414 39.8371 54.7508 40.957 55.0428 42.0005L52.0284 45.0149C50.7925 46.1303 50.6948 48.0364 51.8102 49.2723 52.9257 50.5082 54.8318 50.6059 56.0677 49.4905 56.1564 49.4104 56.2403 49.3251 56.3189 49.235L59.2227 46.3312C59.9361 46.8738 60.7199 47.4264 61.5639 47.969L59.6849 51.7269C58.957 53.2093 59.5573 55.0014 61.0314 55.7461 61.4482 55.9588 61.9098 56.0691 62.3778 56.0677 63.5223 56.0699 64.5694 55.4238 65.0807 54.3997L66.9798 50.5915C67.9004 50.9088 68.8445 51.1541 69.8032 51.325L69.8032 55.2638C69.8032 56.9287 71.1528 58.2782 72.8176 58.2782 74.4825 58.2782 75.832 56.9287 75.832 55.2638L75.832 51.3451C76.7872 51.173 77.7278 50.9277 78.6454 50.6116L80.5445 54.4198C81.0557 55.4439 82.1028 56.09 83.2474 56.0878 83.7154 56.0892 84.1769 55.9789 84.5938 55.7662 86.0679 55.0215 86.6682 53.2294 85.9403 51.747L84.0613 47.9891C84.9053 47.4566 85.6891 46.9039 86.4025 46.3613L89.3063 49.235C90.5244 50.37 92.4318 50.3026 93.5667 49.0846 94.6454 47.927 94.6454 46.1323 93.5667 44.9747Z" transform="matrix(1.00002 0 0 1 -47.4624 -21.9255)"/></g></svg>