<svg width="96" height="96" xmlns="http://www.w3.org/2000/svg" xmlns:xlink="http://www.w3.org/1999/xlink" xml:space="preserve" overflow="hidden"><g><path d="M39.346 33 52.077 33 39.377 11C27.6204 13.7491 17.865 21.9124 13.086 33Z"/><path d="M60.738 40 60.715 40.013 63.083 44.113 75.8 22.1C68.6228 14.3747 58.5508 9.98985 48.006 10 46.5238 10.003 45.043 10.0919 43.571 10.266Z"/><path d="M59.108 59 84.383 59C87.8573 47.4928 85.6862 35.0204 78.528 25.364Z"/><path d="M56.666 63 43.935 63 56.635 85C68.3914 82.251 78.1466 74.0877 82.925 63Z"/><path d="M35.273 56 35.297 55.987 32.913 51.859 20.2 73.885C27.3773 81.6192 37.4547 86.0099 48.006 86 49.4882 85.9969 50.969 85.9081 52.441 85.734Z"/><path d="M36.873 37 11.629 37C8.15763 48.4972 10.322 60.9587 17.467 70.612Z"/></g></svg>