<svg width="96" height="96" xmlns="http://www.w3.org/2000/svg" xmlns:xlink="http://www.w3.org/1999/xlink" xml:space="preserve" overflow="hidden"><g><path d="M50 34.8 37.4 15.2C35.9 12.9 32.8 12.2 30.5 13.7 30.4 13.8 30.2 13.9 30.1 14 28.1 15.7 27.7 18.6 29.1 20.8L40.7 38.9 40.6 39 25.9 25.6C23.9 23.7 20.7 23.9 18.8 25.9 18.7 26 18.6 26.1 18.5 26.3 17 28.4 17.3 31.4 19.3 33.1L35.7 48 35.6 48.1 21.1 41C18.8 39.8 15.9 40.5 14.4 42.7 12.9 45 13.6 48.1 16 49.6 16.1 49.7 16.3 49.8 16.4 49.8L32.8 58 32.9 58.2C36.3 63.2 45.5 76.1 53.7 75.4L62.3 89 82 76.6 74.2 64.2C77.8 57.5 78 49.6 78 43 78 37.7 78 32.7 80.1 30.6 81.6 28.9 81.5 26.3 79.8 24.7L79.8 24.7C78.2 23.2 75.6 23.2 74 24.9 74 24.9 74 25 73.9 25 69.9 29.4 67.6 36.9 67.5 43.8L67.5 44.1C65.4 42.1 63.4 40 61.7 37.7L53.3 12.5C52.4 9.9 49.6 8.5 47 9.3 46.8 9.4 46.7 9.4 46.5 9.5 44.1 10.6 43 13.4 43.9 15.9L50.2 34.7 50 34.8Z" fill="#E46C0A"/><path d="M66.5 12.9C68.2 14.7 69.5 16.7 70.3 19 70.7 20.1 71 21.3 71.2 22.4L74.2 21.9C74 20.5 73.6 19.2 73.1 17.9 71.6 14 68.9 10.6 65.5 8.1 64.4 7.3 63.1 6.6 61.9 6L60.7 8.7C62.9 9.8 64.9 11.2 66.5 12.9Z" fill="#E46C0A"/><path d="M62.3 16.9C63.4 18.1 64.3 19.5 64.9 21.1 65.2 21.9 65.4 22.6 65.5 23.4L68.5 22.9C68.3 21.9 68.1 20.9 67.7 20 67 18.1 65.9 16.3 64.5 14.9 63.1 13.4 61.4 12.3 59.6 11.4L58.4 14.1C59.8 14.8 61.2 15.7 62.3 16.9Z" fill="#E46C0A"/><path d="M25.5 72C23.8 70.2 22.6 68.2 21.7 65.9 21.3 64.8 21 63.6 20.8 62.4L17.8 62.9C18.3 65.7 19.3 68.3 20.8 70.7 21.5 71.9 22.4 73 23.4 74 25.3 76 27.6 77.7 30.2 78.8L31.4 76.1C29.1 75.2 27.2 73.8 25.5 72Z" fill="#E46C0A"/><path d="M29.7 68C28.6 66.8 27.7 65.4 27.1 63.8 26.8 63 26.6 62.3 26.5 61.5L23.5 62C23.7 63 23.9 64 24.3 64.9 25 66.8 26.1 68.6 27.6 70.1 29 71.6 30.7 72.7 32.5 73.6L33.7 70.9C33 70.6 32.3 70.2 31.6 69.7 30.9 69.2 30.3 68.6 29.7 68Z" fill="#E46C0A"/></g></svg>