<svg width="96" height="96" xmlns="http://www.w3.org/2000/svg" xmlns:xlink="http://www.w3.org/1999/xlink" xml:space="preserve" overflow="hidden"><g><path d="M73.3 13.994 76 13.994 76 8 20.03 8 20.03 14 22.63 14C23.73 25.093 30.13 41.285 39.421 47.981 30.126 54.681 23.63 70.868 22.63 81.962L20.03 81.962 20.03 87.962 76 87.962 76 81.962 73.3 81.962C72.3 70.868 65.8 54.677 56.509 47.981 65.805 41.279 72.3 25.087 73.3 13.994ZM67.27 13.994C66.7176 18.4575 65.5847 22.8298 63.9 27L32.1 27C30.4151 22.8279 29.2623 18.4602 28.669 14ZM42.926 52.843C43.3175 52.561 43.6734 52.2326 43.986 51.865L46.03 54.481 46.03 72 36.077 81.953 28.657 81.953C29.718 72 35.607 58.116 42.926 52.843ZM67.271 81.953 59.983 81.953 50.03 72 50.03 54.41 51.987 51.91C52.2885 52.258 52.6291 52.57 53.002 52.84 60.322 58.116 66.211 72 67.271 81.953Z" fill="#C49500"/></g></svg>