<svg width="215" height="79" viewBox="0 0 215 79" fill="none" xmlns="http://www.w3.org/2000/svg">
<path d="M32.5115 3.21057L44.7097 24.3424L46.0085 26.5924H3.67847L4.58081 24.4987C9.35947 13.4118 19.1151 5.24854 30.8708 2.49963L31.9548 2.2467L32.5115 3.21057Z" fill="#FF0000" stroke="white" stroke-width="3"/>
<path d="M39.4993 1.5C50.0452 1.48993 60.1182 5.87544 67.2961 13.6016L68.05 14.4131L67.4963 15.373L55.2815 36.5166L53.9817 38.7656L52.6829 36.5166L50.4084 32.5781L49.6516 31.2676L49.6741 31.2539L33.9417 4.00586L32.803 2.0332L35.0647 1.76562C36.5358 1.59165 38.0158 1.503 39.4973 1.5H39.4993Z" fill="#00B050" stroke="white" stroke-width="3"/>
<path d="M70.0225 16.864C77.1805 26.5201 79.3512 38.9929 75.877 50.4998L75.5557 51.5662H47.5664L48.8652 49.3162L67.5186 17.0076L68.6611 15.0281L70.0225 16.864Z" fill="#2E4A8A" stroke="white" stroke-width="3"/>
<path d="M75.3206 52.4078L74.4182 54.5016C69.6401 65.5884 59.8857 73.7508 48.1301 76.4996L47.0461 76.7535L46.4895 75.7897L34.2913 54.6578L32.9924 52.4078H75.3206Z" fill="#F5D11D" stroke="white" stroke-width="3"/>
<path d="M26.3015 42.4567L28.5916 46.4215L29.363 47.7565L29.3396 47.7682L45.0593 74.9948L46.198 76.9664L43.9363 77.234C42.4651 77.408 40.985 77.4965 39.5037 77.4996H39.5017C28.9492 77.5095 18.8703 73.1185 11.6921 65.3834L10.9392 64.5719L11.4929 63.6129L23.7039 42.4567L25.0027 40.2067L26.3015 42.4567Z" fill="#B538E2" stroke="white" stroke-width="3"/>
<path d="M31.4053 27.4342L30.1055 29.6842L11.4658 61.9694L10.3223 63.9508L8.96094 62.1119C1.81612 52.4589 -0.348219 39.9975 3.12305 28.5006L3.44531 27.4342H31.4053Z" fill="#9A8E8E" stroke="white" stroke-width="3"/>
<mask id="path-7-outside-1_66_541" maskUnits="userSpaceOnUse" x="37" y="22.9092" width="175" height="30" fill="black">
<rect fill="white" x="37" y="22.9092" width="175" height="30"/>
<path d="M40.9778 32.1758V28.9092H54.6889V32.1758H49.6889V48.9092H45.9778V32.1758H40.9778ZM57.3229 48.9092V35.5758H60.8118V48.9092H57.3229ZM59.0785 33.5314C58.5303 33.5314 58.0637 33.3462 57.6785 32.9758C57.3081 32.5907 57.1229 32.124 57.1229 31.5758C57.1229 31.0129 57.3081 30.5462 57.6785 30.1758C58.0637 29.8055 58.5303 29.6203 59.0785 29.6203C59.6414 29.6203 60.1081 29.8055 60.4785 30.1758C60.8488 30.5462 61.034 31.0129 61.034 31.5758C61.034 32.124 60.8488 32.5907 60.4785 32.9758C60.1081 33.3462 59.6414 33.5314 59.0785 33.5314ZM64.1132 48.9092V35.5758H67.2465V37.1536C67.7354 36.5018 68.3354 36.0129 69.0465 35.687C69.7576 35.3462 70.5058 35.1758 71.291 35.1758C72.1058 35.1758 72.8688 35.3536 73.5799 35.7092C74.291 36.0499 74.8836 36.5536 75.3576 37.2203C75.8762 36.5536 76.528 36.0499 77.3132 35.7092C78.0984 35.3536 78.9428 35.1758 79.8465 35.1758C80.8095 35.1758 81.7058 35.3981 82.5354 35.8425C83.365 36.287 84.0391 36.9314 84.5576 37.7758C85.0762 38.6203 85.3354 39.6351 85.3354 40.8203V48.9092H81.8243V41.3092C81.8243 40.4647 81.5799 39.761 81.091 39.1981C80.6169 38.6351 79.9725 38.3536 79.1576 38.3536C78.6984 38.3536 78.2613 38.4573 77.8465 38.6647C77.4317 38.8721 77.0984 39.1907 76.8465 39.6203C76.5947 40.0499 76.4688 40.5981 76.4688 41.2647V48.9092H72.9576V41.3092C72.9576 40.7462 72.8465 40.2425 72.6243 39.7981C72.4021 39.3388 72.091 38.9833 71.691 38.7314C71.291 38.4647 70.8243 38.3314 70.291 38.3314C69.8465 38.3314 69.4169 38.4425 69.0021 38.6647C68.5873 38.8721 68.2465 39.1907 67.9799 39.6203C67.728 40.0499 67.6021 40.5981 67.6021 41.2647V48.9092H64.1132ZM95.0875 49.3092C93.6208 49.3092 92.3171 48.9981 91.1764 48.3758C90.0505 47.7536 89.169 46.9018 88.5319 45.8203C87.9097 44.724 87.5986 43.487 87.5986 42.1092C87.5986 40.7907 87.9023 39.6129 88.5097 38.5758C89.1319 37.524 89.969 36.6944 91.0208 36.087C92.0727 35.4795 93.2356 35.1758 94.5097 35.1758C95.8134 35.1758 96.9764 35.4795 97.9986 36.087C99.0356 36.6795 99.8579 37.487 100.465 38.5092C101.073 39.5314 101.376 40.6944 101.376 41.9981V43.2647H93.0875C92.7171 43.2647 92.3542 43.2425 91.9986 43.1981C91.6431 43.1536 91.2875 43.1018 90.9319 43.0425C91.1097 44.0055 91.5764 44.7981 92.3319 45.4203C93.0875 46.0425 94.0356 46.3536 95.1764 46.3536C96.0208 46.3536 96.7838 46.1758 97.4653 45.8203C98.1468 45.4647 98.7097 45.0203 99.1542 44.487L99.9542 47.7536C99.2875 48.2721 98.5394 48.6573 97.7097 48.9092C96.8801 49.1758 96.006 49.3092 95.0875 49.3092ZM90.8431 40.887C91.5986 40.7388 92.3468 40.6647 93.0875 40.6647H95.9542C96.3542 40.6647 96.7319 40.6795 97.0875 40.7092C97.4431 40.7388 97.7838 40.7833 98.1097 40.8425C97.8875 39.9833 97.4505 39.2944 96.7986 38.7758C96.1616 38.2573 95.3912 37.9981 94.4875 37.9981C93.5986 37.9981 92.8282 38.2647 92.1764 38.7981C91.5245 39.3314 91.0801 40.0277 90.8431 40.887ZM100.447 32.1758V28.9092H114.158V32.1758H109.158V48.9092H105.447V32.1758H100.447ZM114.113 48.9092V35.5758H117.247V37.9092C117.721 37.1388 118.313 36.5388 119.024 36.1092C119.75 35.6647 120.609 35.4425 121.602 35.4425L122.38 38.5981C122.098 38.5092 121.78 38.4647 121.424 38.4647C120.269 38.4647 119.343 38.8351 118.647 39.5758C117.95 40.3166 117.602 41.3684 117.602 42.7314V48.9092H114.113ZM129.743 49.2203C128.528 49.2203 127.417 48.9092 126.41 48.287C125.402 47.6499 124.595 46.8055 123.988 45.7536C123.395 44.687 123.099 43.5166 123.099 42.2425C123.099 40.9684 123.395 39.8055 123.988 38.7536C124.595 37.687 125.402 36.8425 126.41 36.2203C127.417 35.5833 128.528 35.2647 129.743 35.2647C130.617 35.2647 131.425 35.4203 132.165 35.7314C132.906 36.0425 133.536 36.4796 134.054 37.0425V35.5758H137.099V48.9092H134.054V47.4425C133.536 47.9907 132.906 48.4277 132.165 48.7536C131.425 49.0647 130.617 49.2203 129.743 49.2203ZM130.165 46.1314C130.876 46.1314 131.513 45.9536 132.076 45.5981C132.654 45.2425 133.113 44.7758 133.454 44.1981C133.795 43.6055 133.965 42.9536 133.965 42.2425C133.965 41.5314 133.795 40.887 133.454 40.3092C133.113 39.7166 132.654 39.2425 132.076 38.887C131.513 38.5314 130.884 38.3536 130.188 38.3536C129.476 38.3536 128.832 38.5314 128.254 38.887C127.691 39.2425 127.239 39.7166 126.899 40.3092C126.558 40.887 126.388 41.5314 126.388 42.2425C126.388 42.9536 126.558 43.6055 126.899 44.1981C127.239 44.7758 127.691 45.2425 128.254 45.5981C128.832 45.9536 129.469 46.1314 130.165 46.1314ZM146.817 49.3092C145.498 49.3092 144.291 48.9907 143.194 48.3536C142.113 47.7166 141.254 46.8647 140.617 45.7981C139.98 44.7166 139.661 43.5314 139.661 42.2425C139.661 40.9388 139.98 39.7536 140.617 38.687C141.254 37.6203 142.113 36.7684 143.194 36.1314C144.291 35.4944 145.498 35.1758 146.817 35.1758C147.75 35.1758 148.631 35.3314 149.461 35.6425C150.291 35.9536 151.024 36.4055 151.661 36.9981L150.728 40.687C150.357 40.0499 149.846 39.5018 149.194 39.0425C148.543 38.5684 147.787 38.3314 146.928 38.3314C146.187 38.3314 145.52 38.5092 144.928 38.8647C144.35 39.2203 143.891 39.6944 143.55 40.287C143.209 40.8647 143.039 41.5166 143.039 42.2425C143.039 42.9536 143.209 43.6055 143.55 44.1981C143.891 44.7907 144.35 45.2647 144.928 45.6203C145.52 45.9758 146.187 46.1536 146.928 46.1536C147.787 46.1536 148.543 45.924 149.194 45.4647C149.846 44.9907 150.357 44.4351 150.728 43.7981L151.661 47.487C151.024 48.0796 150.291 48.5314 149.461 48.8425C148.631 49.1536 147.75 49.3092 146.817 49.3092ZM162.717 48.9092L157.206 41.5758L161.739 35.5758H165.539L161.094 41.287L166.872 48.9092H162.717ZM153.894 48.9092V27.5758H157.383V48.9092H153.894ZM168.551 48.9092V35.5758H171.684V37.9092C172.158 37.1388 172.751 36.5388 173.462 36.1092C174.188 35.6647 175.047 35.4425 176.04 35.4425L176.817 38.5981C176.536 38.5092 176.217 38.4647 175.862 38.4647C174.706 38.4647 173.78 38.8351 173.084 39.5758C172.388 40.3166 172.04 41.3684 172.04 42.7314V48.9092H168.551ZM180.463 48.9092V46.0203H184.796V33.3981L180.463 35.5758V32.1536L188.218 28.2647V46.0203H191.663V48.9092H180.463ZM197.119 48.9092V46.0203H201.452V33.3981L197.119 35.5758V32.1536L204.874 28.2647V46.0203H208.319V48.9092H197.119Z"/>
</mask>
<path d="M40.9778 32.1758V28.9092H54.6889V32.1758H49.6889V48.9092H45.9778V32.1758H40.9778ZM57.3229 48.9092V35.5758H60.8118V48.9092H57.3229ZM59.0785 33.5314C58.5303 33.5314 58.0637 33.3462 57.6785 32.9758C57.3081 32.5907 57.1229 32.124 57.1229 31.5758C57.1229 31.0129 57.3081 30.5462 57.6785 30.1758C58.0637 29.8055 58.5303 29.6203 59.0785 29.6203C59.6414 29.6203 60.1081 29.8055 60.4785 30.1758C60.8488 30.5462 61.034 31.0129 61.034 31.5758C61.034 32.124 60.8488 32.5907 60.4785 32.9758C60.1081 33.3462 59.6414 33.5314 59.0785 33.5314ZM64.1132 48.9092V35.5758H67.2465V37.1536C67.7354 36.5018 68.3354 36.0129 69.0465 35.687C69.7576 35.3462 70.5058 35.1758 71.291 35.1758C72.1058 35.1758 72.8688 35.3536 73.5799 35.7092C74.291 36.0499 74.8836 36.5536 75.3576 37.2203C75.8762 36.5536 76.528 36.0499 77.3132 35.7092C78.0984 35.3536 78.9428 35.1758 79.8465 35.1758C80.8095 35.1758 81.7058 35.3981 82.5354 35.8425C83.365 36.287 84.0391 36.9314 84.5576 37.7758C85.0762 38.6203 85.3354 39.6351 85.3354 40.8203V48.9092H81.8243V41.3092C81.8243 40.4647 81.5799 39.761 81.091 39.1981C80.6169 38.6351 79.9725 38.3536 79.1576 38.3536C78.6984 38.3536 78.2613 38.4573 77.8465 38.6647C77.4317 38.8721 77.0984 39.1907 76.8465 39.6203C76.5947 40.0499 76.4688 40.5981 76.4688 41.2647V48.9092H72.9576V41.3092C72.9576 40.7462 72.8465 40.2425 72.6243 39.7981C72.4021 39.3388 72.091 38.9833 71.691 38.7314C71.291 38.4647 70.8243 38.3314 70.291 38.3314C69.8465 38.3314 69.4169 38.4425 69.0021 38.6647C68.5873 38.8721 68.2465 39.1907 67.9799 39.6203C67.728 40.0499 67.6021 40.5981 67.6021 41.2647V48.9092H64.1132ZM95.0875 49.3092C93.6208 49.3092 92.3171 48.9981 91.1764 48.3758C90.0505 47.7536 89.169 46.9018 88.5319 45.8203C87.9097 44.724 87.5986 43.487 87.5986 42.1092C87.5986 40.7907 87.9023 39.6129 88.5097 38.5758C89.1319 37.524 89.969 36.6944 91.0208 36.087C92.0727 35.4795 93.2356 35.1758 94.5097 35.1758C95.8134 35.1758 96.9764 35.4795 97.9986 36.087C99.0356 36.6795 99.8579 37.487 100.465 38.5092C101.073 39.5314 101.376 40.6944 101.376 41.9981V43.2647H93.0875C92.7171 43.2647 92.3542 43.2425 91.9986 43.1981C91.6431 43.1536 91.2875 43.1018 90.9319 43.0425C91.1097 44.0055 91.5764 44.7981 92.3319 45.4203C93.0875 46.0425 94.0356 46.3536 95.1764 46.3536C96.0208 46.3536 96.7838 46.1758 97.4653 45.8203C98.1468 45.4647 98.7097 45.0203 99.1542 44.487L99.9542 47.7536C99.2875 48.2721 98.5394 48.6573 97.7097 48.9092C96.8801 49.1758 96.006 49.3092 95.0875 49.3092ZM90.8431 40.887C91.5986 40.7388 92.3468 40.6647 93.0875 40.6647H95.9542C96.3542 40.6647 96.7319 40.6795 97.0875 40.7092C97.4431 40.7388 97.7838 40.7833 98.1097 40.8425C97.8875 39.9833 97.4505 39.2944 96.7986 38.7758C96.1616 38.2573 95.3912 37.9981 94.4875 37.9981C93.5986 37.9981 92.8282 38.2647 92.1764 38.7981C91.5245 39.3314 91.0801 40.0277 90.8431 40.887ZM100.447 32.1758V28.9092H114.158V32.1758H109.158V48.9092H105.447V32.1758H100.447ZM114.113 48.9092V35.5758H117.247V37.9092C117.721 37.1388 118.313 36.5388 119.024 36.1092C119.75 35.6647 120.609 35.4425 121.602 35.4425L122.38 38.5981C122.098 38.5092 121.78 38.4647 121.424 38.4647C120.269 38.4647 119.343 38.8351 118.647 39.5758C117.95 40.3166 117.602 41.3684 117.602 42.7314V48.9092H114.113ZM129.743 49.2203C128.528 49.2203 127.417 48.9092 126.41 48.287C125.402 47.6499 124.595 46.8055 123.988 45.7536C123.395 44.687 123.099 43.5166 123.099 42.2425C123.099 40.9684 123.395 39.8055 123.988 38.7536C124.595 37.687 125.402 36.8425 126.41 36.2203C127.417 35.5833 128.528 35.2647 129.743 35.2647C130.617 35.2647 131.425 35.4203 132.165 35.7314C132.906 36.0425 133.536 36.4796 134.054 37.0425V35.5758H137.099V48.9092H134.054V47.4425C133.536 47.9907 132.906 48.4277 132.165 48.7536C131.425 49.0647 130.617 49.2203 129.743 49.2203ZM130.165 46.1314C130.876 46.1314 131.513 45.9536 132.076 45.5981C132.654 45.2425 133.113 44.7758 133.454 44.1981C133.795 43.6055 133.965 42.9536 133.965 42.2425C133.965 41.5314 133.795 40.887 133.454 40.3092C133.113 39.7166 132.654 39.2425 132.076 38.887C131.513 38.5314 130.884 38.3536 130.188 38.3536C129.476 38.3536 128.832 38.5314 128.254 38.887C127.691 39.2425 127.239 39.7166 126.899 40.3092C126.558 40.887 126.388 41.5314 126.388 42.2425C126.388 42.9536 126.558 43.6055 126.899 44.1981C127.239 44.7758 127.691 45.2425 128.254 45.5981C128.832 45.9536 129.469 46.1314 130.165 46.1314ZM146.817 49.3092C145.498 49.3092 144.291 48.9907 143.194 48.3536C142.113 47.7166 141.254 46.8647 140.617 45.7981C139.98 44.7166 139.661 43.5314 139.661 42.2425C139.661 40.9388 139.98 39.7536 140.617 38.687C141.254 37.6203 142.113 36.7684 143.194 36.1314C144.291 35.4944 145.498 35.1758 146.817 35.1758C147.75 35.1758 148.631 35.3314 149.461 35.6425C150.291 35.9536 151.024 36.4055 151.661 36.9981L150.728 40.687C150.357 40.0499 149.846 39.5018 149.194 39.0425C148.543 38.5684 147.787 38.3314 146.928 38.3314C146.187 38.3314 145.52 38.5092 144.928 38.8647C144.35 39.2203 143.891 39.6944 143.55 40.287C143.209 40.8647 143.039 41.5166 143.039 42.2425C143.039 42.9536 143.209 43.6055 143.55 44.1981C143.891 44.7907 144.35 45.2647 144.928 45.6203C145.52 45.9758 146.187 46.1536 146.928 46.1536C147.787 46.1536 148.543 45.924 149.194 45.4647C149.846 44.9907 150.357 44.4351 150.728 43.7981L151.661 47.487C151.024 48.0796 150.291 48.5314 149.461 48.8425C148.631 49.1536 147.75 49.3092 146.817 49.3092ZM162.717 48.9092L157.206 41.5758L161.739 35.5758H165.539L161.094 41.287L166.872 48.9092H162.717ZM153.894 48.9092V27.5758H157.383V48.9092H153.894ZM168.551 48.9092V35.5758H171.684V37.9092C172.158 37.1388 172.751 36.5388 173.462 36.1092C174.188 35.6647 175.047 35.4425 176.04 35.4425L176.817 38.5981C176.536 38.5092 176.217 38.4647 175.862 38.4647C174.706 38.4647 173.78 38.8351 173.084 39.5758C172.388 40.3166 172.04 41.3684 172.04 42.7314V48.9092H168.551ZM180.463 48.9092V46.0203H184.796V33.3981L180.463 35.5758V32.1536L188.218 28.2647V46.0203H191.663V48.9092H180.463ZM197.119 48.9092V46.0203H201.452V33.3981L197.119 35.5758V32.1536L204.874 28.2647V46.0203H208.319V48.9092H197.119Z" fill="#2E4A8A"/>
<path d="M40.9778 32.1758H37.9778V35.1758H40.9778V32.1758ZM40.9778 28.9092V25.9092H37.9778V28.9092H40.9778ZM54.6889 28.9092H57.6889V25.9092H54.6889V28.9092ZM54.6889 32.1758V35.1758H57.6889V32.1758H54.6889ZM49.6889 32.1758V29.1758H46.6889V32.1758H49.6889ZM49.6889 48.9092V51.9092H52.6889V48.9092H49.6889ZM45.9778 48.9092H42.9778V51.9092H45.9778V48.9092ZM45.9778 32.1758H48.9778V29.1758H45.9778V32.1758ZM40.9778 32.1758H43.9778V28.9092H40.9778H37.9778V32.1758H40.9778ZM40.9778 28.9092V31.9092H54.6889V28.9092V25.9092H40.9778V28.9092ZM54.6889 28.9092H51.6889V32.1758H54.6889H57.6889V28.9092H54.6889ZM54.6889 32.1758V29.1758H49.6889V32.1758V35.1758H54.6889V32.1758ZM49.6889 32.1758H46.6889V48.9092H49.6889H52.6889V32.1758H49.6889ZM49.6889 48.9092V45.9092H45.9778V48.9092V51.9092H49.6889V48.9092ZM45.9778 48.9092H48.9778V32.1758H45.9778H42.9778V48.9092H45.9778ZM45.9778 32.1758V29.1758H40.9778V32.1758V35.1758H45.9778V32.1758ZM57.3229 48.9092H54.3229V51.9092H57.3229V48.9092ZM57.3229 35.5758V32.5758H54.3229V35.5758H57.3229ZM60.8118 35.5758H63.8118V32.5758H60.8118V35.5758ZM60.8118 48.9092V51.9092H63.8118V48.9092H60.8118ZM57.6785 32.9758L55.516 35.0552L55.5567 35.0976L55.5991 35.1383L57.6785 32.9758ZM57.6785 30.1758L55.5991 28.0133L55.5779 28.0337L55.5572 28.0545L57.6785 30.1758ZM60.4785 30.1758L58.3572 32.2972L58.3572 32.2972L60.4785 30.1758ZM60.4785 32.9758L62.5998 35.0972L62.6206 35.0764L62.641 35.0552L60.4785 32.9758ZM57.3229 48.9092H60.3229V35.5758H57.3229H54.3229V48.9092H57.3229ZM57.3229 35.5758V38.5758H60.8118V35.5758V32.5758H57.3229V35.5758ZM60.8118 35.5758H57.8118V48.9092H60.8118H63.8118V35.5758H60.8118ZM60.8118 48.9092V45.9092H57.3229V48.9092V51.9092H60.8118V48.9092ZM59.0785 33.5314V30.5314C59.1484 30.5314 59.274 30.5446 59.4239 30.604C59.5752 30.6641 59.6881 30.7463 59.7578 30.8133L57.6785 32.9758L55.5991 35.1383C56.559 36.0613 57.7773 36.5314 59.0785 36.5314V33.5314ZM57.6785 32.9758L59.841 30.8965C59.908 30.9662 59.9902 31.0791 60.0503 31.2304C60.1098 31.3803 60.1229 31.5059 60.1229 31.5758H57.1229H54.1229C54.1229 32.877 54.593 34.0953 55.516 35.0552L57.6785 32.9758ZM57.1229 31.5758H60.1229C60.1229 31.6275 60.1134 31.7511 60.0503 31.9102C59.9855 32.0735 59.8911 32.2059 59.7998 32.2972L57.6785 30.1758L55.5572 28.0545C54.5793 29.0324 54.1229 30.283 54.1229 31.5758H57.1229ZM57.6785 30.1758L59.7578 32.3383C59.6881 32.4054 59.5752 32.4876 59.4239 32.5477C59.274 32.6071 59.1484 32.6203 59.0785 32.6203V29.6203V26.6203C57.7773 26.6203 56.559 27.0904 55.5991 28.0133L57.6785 30.1758ZM59.0785 29.6203V32.6203C59.0268 32.6203 58.9032 32.6108 58.7442 32.5477C58.5809 32.4828 58.4484 32.3885 58.3572 32.2972L60.4785 30.1758L62.5998 28.0545C61.6219 27.0767 60.3713 26.6203 59.0785 26.6203V29.6203ZM60.4785 30.1758L58.3572 32.2972C58.2659 32.2059 58.1715 32.0735 58.1067 31.9102C58.0436 31.7511 58.034 31.6275 58.034 31.5758H61.034H64.034C64.034 30.283 63.5777 29.0324 62.5998 28.0545L60.4785 30.1758ZM61.034 31.5758H58.034C58.034 31.5059 58.0472 31.3803 58.1067 31.2304C58.1667 31.0791 58.2489 30.9662 58.316 30.8965L60.4785 32.9758L62.641 35.0552C63.5639 34.0953 64.034 32.877 64.034 31.5758H61.034ZM60.4785 32.9758L58.3572 30.8545C58.4484 30.7632 58.5809 30.6688 58.7442 30.604C58.9032 30.5409 59.0268 30.5314 59.0785 30.5314V33.5314V36.5314C60.3713 36.5314 61.6219 36.075 62.5998 35.0972L60.4785 32.9758ZM64.1132 48.9092H61.1132V51.9092H64.1132V48.9092ZM64.1132 35.5758V32.5758H61.1132V35.5758H64.1132ZM67.2465 35.5758H70.2465V32.5758H67.2465V35.5758ZM67.2465 37.1536H64.2465V46.1536L69.6465 38.9536L67.2465 37.1536ZM69.0465 35.687L70.2965 38.4142L70.3198 38.4035L70.3429 38.3924L69.0465 35.687ZM73.5799 35.7092L72.2382 38.3925L72.2608 38.4037L72.2835 38.4146L73.5799 35.7092ZM75.3576 37.2203L72.9128 38.9589L75.2498 42.2454L77.7257 39.0621L75.3576 37.2203ZM77.3132 35.7092L78.5075 38.4612L78.5292 38.4518L78.5507 38.442L77.3132 35.7092ZM82.5354 35.8425L83.9521 33.1981L82.5354 35.8425ZM84.5576 37.7758L87.1142 36.2061V36.2061L84.5576 37.7758ZM85.3354 48.9092V51.9092H88.3354V48.9092H85.3354ZM81.8243 48.9092H78.8243V51.9092H81.8243V48.9092ZM81.091 39.1981L78.7962 41.1305L78.8109 41.1479L78.8259 41.1651L81.091 39.1981ZM77.8465 38.6647L76.5049 35.9815L76.5049 35.9815L77.8465 38.6647ZM76.4688 48.9092V51.9092H79.4688V48.9092H76.4688ZM72.9576 48.9092H69.9576V51.9092H72.9576V48.9092ZM72.6243 39.7981L69.9238 41.1047L69.9323 41.1223L69.941 41.1397L72.6243 39.7981ZM71.691 38.7314L70.0269 41.2276L70.0594 41.2493L70.0925 41.2701L71.691 38.7314ZM69.0021 38.6647L70.3437 41.348L70.3815 41.3291L70.4187 41.3092L69.0021 38.6647ZM67.9799 39.6203L65.4309 38.0382L65.4109 38.0704L65.3918 38.1031L67.9799 39.6203ZM67.6021 48.9092V51.9092H70.6021V48.9092H67.6021ZM64.1132 48.9092H67.1132V35.5758H64.1132H61.1132V48.9092H64.1132ZM64.1132 35.5758V38.5758H67.2465V35.5758V32.5758H64.1132V35.5758ZM67.2465 35.5758H64.2465V37.1536H67.2465H70.2465V35.5758H67.2465ZM67.2465 37.1536L69.6465 38.9536C69.8483 38.6846 70.0593 38.5229 70.2965 38.4142L69.0465 35.687L67.7966 32.9598C66.6116 33.5029 65.6225 34.319 64.8465 35.3536L67.2465 37.1536ZM69.0465 35.687L70.3429 38.3924C70.6511 38.2447 70.9565 38.1758 71.291 38.1758V35.1758V32.1758C70.0551 32.1758 68.8641 32.4477 67.7502 32.9815L69.0465 35.687ZM71.291 35.1758V38.1758C71.652 38.1758 71.9543 38.2505 72.2382 38.3925L73.5799 35.7092L74.9215 33.0259C73.7832 32.4568 72.5595 32.1758 71.291 32.1758V35.1758ZM73.5799 35.7092L72.2835 38.4146C72.5185 38.5272 72.7219 38.6905 72.9128 38.9589L75.3576 37.2203L77.8025 35.4817C77.0452 34.4168 76.0634 33.5726 74.8762 33.0037L73.5799 35.7092ZM75.3576 37.2203L77.7257 39.0621C77.9311 38.798 78.1772 38.6046 78.5075 38.4612L77.3132 35.7092L76.1189 32.9571C74.8788 33.4953 73.8212 34.3093 72.9896 35.3785L75.3576 37.2203ZM77.3132 35.7092L78.5507 38.442C78.9283 38.2711 79.3485 38.1758 79.8465 38.1758V35.1758V32.1758C78.5372 32.1758 77.2685 32.4362 76.0757 32.9763L77.3132 35.7092ZM79.8465 35.1758V38.1758C80.3271 38.1758 80.7352 38.2815 81.1188 38.487L82.5354 35.8425L83.9521 33.1981C82.6764 32.5146 81.2919 32.1758 79.8465 32.1758V35.1758ZM82.5354 35.8425L81.1188 38.487C81.4548 38.667 81.7454 38.9291 82.0011 39.3456L84.5576 37.7758L87.1142 36.2061C86.3329 34.9337 85.2752 33.9069 83.9521 33.1981L82.5354 35.8425ZM84.5576 37.7758L82.0011 39.3456C82.1773 39.6325 82.3354 40.0798 82.3354 40.8203H85.3354H88.3354C88.3354 39.1904 87.975 37.6081 87.1142 36.2061L84.5576 37.7758ZM85.3354 40.8203H82.3354V48.9092H85.3354H88.3354V40.8203H85.3354ZM85.3354 48.9092V45.9092H81.8243V48.9092V51.9092H85.3354V48.9092ZM81.8243 48.9092H84.8243V41.3092H81.8243H78.8243V48.9092H81.8243ZM81.8243 41.3092H84.8243C84.8243 39.8441 84.3819 38.4122 83.3561 37.231L81.091 39.1981L78.8259 41.1651C78.826 41.1653 78.8248 41.1639 78.8227 41.1609C78.8205 41.1579 78.8181 41.1542 78.8155 41.1498C78.813 41.1454 78.8109 41.1413 78.8093 41.1379C78.8086 41.1362 78.808 41.1349 78.8076 41.1339C78.8072 41.1329 78.8071 41.1324 78.8071 41.1325C78.8071 41.1325 78.808 41.1352 78.8095 41.141C78.8109 41.1469 78.813 41.1564 78.8152 41.1701C78.8195 41.1975 78.8243 41.2428 78.8243 41.3092H81.8243ZM81.091 39.1981L83.3857 37.2657C82.2761 35.948 80.7504 35.3536 79.1576 35.3536V38.3536V41.3536C79.2168 41.3536 79.1632 41.3628 79.0513 41.3139C78.9977 41.2905 78.9444 41.2595 78.8959 41.2229C78.8478 41.1866 78.8151 41.1528 78.7962 41.1305L81.091 39.1981ZM79.1576 38.3536V35.3536C78.2279 35.3536 77.332 35.5679 76.5049 35.9815L77.8465 38.6647L79.1882 41.348C79.1926 41.3458 79.1935 41.3456 79.191 41.3466C79.1884 41.3475 79.1839 41.349 79.178 41.3504C79.1722 41.3517 79.1667 41.3527 79.1622 41.3532C79.1577 41.3537 79.156 41.3536 79.1576 41.3536V38.3536ZM77.8465 38.6647L76.5049 35.9815C75.5317 36.468 74.7814 37.211 74.2584 38.1031L76.8465 39.6203L79.4346 41.1374C79.431 41.1436 79.408 41.1804 79.358 41.2282C79.3068 41.2771 79.2471 41.3185 79.1882 41.348L77.8465 38.6647ZM76.8465 39.6203L74.2584 38.1031C73.6605 39.1232 73.4688 40.2393 73.4688 41.2647H76.4688H79.4688C79.4688 41.1171 79.483 41.0429 79.487 41.0253C79.4904 41.0106 79.4814 41.0576 79.4346 41.1374L76.8465 39.6203ZM76.4688 41.2647H73.4688V48.9092H76.4688H79.4688V41.2647H76.4688ZM76.4688 48.9092V45.9092H72.9576V48.9092V51.9092H76.4688V48.9092ZM72.9576 48.9092H75.9576V41.3092H72.9576H69.9576V48.9092H72.9576ZM72.9576 41.3092H75.9576C75.9576 40.3428 75.7643 39.3698 75.3076 38.4564L72.6243 39.7981L69.941 41.1397C69.9376 41.1329 69.9403 41.1354 69.9447 41.1554C69.9494 41.1767 69.9576 41.2254 69.9576 41.3092H72.9576ZM72.6243 39.7981L75.3248 38.4914C74.878 37.5681 74.2027 36.7677 73.2894 36.1927L71.691 38.7314L70.0925 41.2701C70.0468 41.2413 70.0024 41.2035 69.9666 41.1625C69.9318 41.1227 69.9204 41.0977 69.9238 41.1047L72.6243 39.7981ZM71.691 38.7314L73.3551 36.2353C72.4091 35.6046 71.3493 35.3314 70.291 35.3314V38.3314V41.3314C70.3062 41.3314 70.2765 41.333 70.2168 41.316C70.1547 41.2982 70.0876 41.268 70.0269 41.2276L71.691 38.7314ZM70.291 38.3314V35.3314C69.3231 35.3314 68.4095 35.5788 67.5854 36.0203L69.0021 38.6647L70.4187 41.3092C70.4281 41.3041 70.4167 41.3114 70.3866 41.3192C70.3557 41.3272 70.3218 41.3314 70.291 41.3314V38.3314ZM69.0021 38.6647L67.6604 35.9815C66.7046 36.4594 65.963 37.181 65.4309 38.0382L67.9799 39.6203L70.5288 41.2024C70.5345 41.1931 70.522 41.2153 70.4841 41.2508C70.4449 41.2874 70.3959 41.3219 70.3437 41.348L69.0021 38.6647ZM67.9799 39.6203L65.3918 38.1031C64.7938 39.1232 64.6021 40.2393 64.6021 41.2647H67.6021H70.6021C70.6021 41.1171 70.6163 41.0429 70.6204 41.0253C70.6237 41.0106 70.6148 41.0576 70.568 41.1374L67.9799 39.6203ZM67.6021 41.2647H64.6021V48.9092H67.6021H70.6021V41.2647H67.6021ZM67.6021 48.9092V45.9092H64.1132V48.9092V51.9092H67.6021V48.9092ZM91.1764 48.3758L89.7253 51.0016L89.7326 51.0056L89.7398 51.0095L91.1764 48.3758ZM88.5319 45.8203L85.9229 47.3011L85.9348 47.3221L85.9471 47.3429L88.5319 45.8203ZM88.5097 38.5758L85.9276 37.0484L85.9211 37.0596L88.5097 38.5758ZM97.9986 36.087L96.4661 38.666L96.4881 38.679L96.5102 38.6917L97.9986 36.087ZM100.465 38.5092L97.8862 40.0417V40.0417L100.465 38.5092ZM101.376 43.2647V46.2647H104.376V43.2647H101.376ZM91.9986 43.1981L91.6265 46.1749L91.9986 43.1981ZM90.9319 43.0425L91.4251 40.0833L87.2051 39.38L87.9818 43.5872L90.9319 43.0425ZM92.3319 45.4203L90.4248 47.7361L92.3319 45.4203ZM97.4653 45.8203L96.0776 43.1605L97.4653 45.8203ZM99.1542 44.487L102.068 43.7734L100.654 38.0006L96.8495 42.5664L99.1542 44.487ZM99.9542 47.7536L101.796 50.1217L103.33 48.9282L102.868 47.04L99.9542 47.7536ZM97.7097 48.9092L96.8383 46.0385L96.8149 46.0456L96.7917 46.0531L97.7097 48.9092ZM90.8431 40.887L87.9511 40.0892L86.6615 44.764L91.4203 43.8309L90.8431 40.887ZM97.0875 40.7092L96.8384 43.6988L96.8384 43.6988L97.0875 40.7092ZM98.1097 40.8425L97.5731 43.7941L102.189 44.6334L101.014 40.0914L98.1097 40.8425ZM96.7986 38.7758L94.9048 41.1025L94.9179 41.1132L94.931 41.1236L96.7986 38.7758ZM92.1764 38.7981L94.0761 41.1199L92.1764 38.7981ZM95.0875 49.3092V46.3092C94.0572 46.3092 93.2588 46.0945 92.6129 45.7422L91.1764 48.3758L89.7398 51.0095C91.3754 51.9017 93.1844 52.3092 95.0875 52.3092V49.3092ZM91.1764 48.3758L92.6274 45.7501C91.9591 45.3808 91.4744 44.9047 91.1168 44.2977L88.5319 45.8203L85.9471 47.3429C86.8636 48.8988 88.1418 50.1265 89.7253 51.0016L91.1764 48.3758ZM88.5319 45.8203L91.141 44.3395C90.7984 43.7359 90.5986 43.0174 90.5986 42.1092H87.5986H84.5986C84.5986 43.9565 85.021 45.7121 85.9229 47.3011L88.5319 45.8203ZM87.5986 42.1092H90.5986C90.5986 41.2704 90.786 40.6253 91.0984 40.0921L88.5097 38.5758L85.9211 37.0596C85.0186 38.6004 84.5986 40.311 84.5986 42.1092H87.5986ZM88.5097 38.5758L91.0918 40.1033C91.4531 39.4924 91.9187 39.0327 92.5211 38.6849L91.0208 36.087L89.5206 33.489C88.0192 34.356 86.8108 35.5555 85.9277 37.0484L88.5097 38.5758ZM91.0208 36.087L92.5211 38.6849C93.0941 38.354 93.7355 38.1758 94.5097 38.1758V35.1758V32.1758C92.7358 32.1758 91.0513 32.6051 89.5206 33.489L91.0208 36.087ZM94.5097 35.1758V38.1758C95.3276 38.1758 95.9516 38.3603 96.4661 38.666L97.9986 36.087L99.5311 33.5079C98.0012 32.5988 96.2992 32.1758 94.5097 32.1758V35.1758ZM97.9986 36.087L96.5102 38.6917C97.0993 39.0283 97.5449 39.4672 97.8862 40.0417L100.465 38.5092L103.044 36.9767C102.171 35.5067 100.972 34.3308 99.487 33.4822L97.9986 36.087ZM100.465 38.5092L97.8862 40.0417C98.192 40.5562 98.3764 41.1801 98.3764 41.9981H101.376H104.376C104.376 40.2086 103.953 38.5066 103.044 36.9767L100.465 38.5092ZM101.376 41.9981H98.3764V43.2647H101.376H104.376V41.9981H101.376ZM101.376 43.2647V40.2647H93.0875V43.2647V46.2647H101.376V43.2647ZM93.0875 43.2647V40.2647C92.8374 40.2647 92.5988 40.2497 92.3707 40.2212L91.9986 43.1981L91.6265 46.1749C92.1096 46.2353 92.5969 46.2647 93.0875 46.2647V43.2647ZM91.9986 43.1981L92.3707 40.2212C92.0559 40.1819 91.7407 40.1359 91.4251 40.0833L90.9319 43.0425L90.4387 46.0017C90.8343 46.0676 91.2302 46.1254 91.6265 46.1749L91.9986 43.1981ZM90.9319 43.0425L87.9818 43.5872C88.2878 45.2446 89.1236 46.6645 90.4248 47.7361L92.3319 45.4203L94.2391 43.1045C94.0292 42.9316 93.9317 42.7664 93.8821 42.4979L90.9319 43.0425ZM92.3319 45.4203L90.4248 47.7361C91.804 48.8718 93.4607 49.3536 95.1764 49.3536V46.3536V43.3536C94.6106 43.3536 94.371 43.2132 94.2391 43.1045L92.3319 45.4203ZM95.1764 46.3536V49.3536C96.4555 49.3536 97.702 49.0805 98.853 48.48L97.4653 45.8203L96.0776 43.1605C95.8656 43.2711 95.5862 43.3536 95.1764 43.3536V46.3536ZM97.4653 45.8203L98.853 48.48C99.8482 47.9608 100.735 47.2765 101.459 46.4075L99.1542 44.487L96.8495 42.5664C96.6848 42.7641 96.4453 42.9687 96.0776 43.1605L97.4653 45.8203ZM99.1542 44.487L96.2403 45.2006L97.0403 48.4672L99.9542 47.7536L102.868 47.04L102.068 43.7734L99.1542 44.487ZM99.9542 47.7536L98.1123 45.3856C97.7434 45.6725 97.3259 45.8905 96.8383 46.0385L97.7097 48.9092L98.5812 51.7798C99.7528 51.4242 100.832 50.8717 101.796 50.1217L99.9542 47.7536ZM97.7097 48.9092L96.7917 46.0531C96.2744 46.2194 95.7113 46.3092 95.0875 46.3092V49.3092V52.3092C96.3007 52.3092 97.4858 52.1323 98.6278 51.7653L97.7097 48.9092ZM90.8431 40.887L91.4203 43.8309C91.9932 43.7186 92.548 43.6647 93.0875 43.6647V40.6647V37.6647C92.1455 37.6647 91.204 37.759 90.2658 37.943L90.8431 40.887ZM93.0875 40.6647V43.6647H95.9542V40.6647V37.6647H93.0875V40.6647ZM95.9542 40.6647V43.6647C96.2808 43.6647 96.5749 43.6769 96.8384 43.6988L97.0875 40.7092L97.3366 37.7195C96.889 37.6822 96.4275 37.6647 95.9542 37.6647V40.6647ZM97.0875 40.7092L96.8384 43.6988C97.1048 43.721 97.3493 43.7534 97.5731 43.7941L98.1097 40.8425L98.6464 37.8909C98.2183 37.8131 97.7813 37.7566 97.3366 37.7195L97.0875 40.7092ZM98.1097 40.8425L101.014 40.0914C100.64 38.6455 99.8623 37.3795 98.6662 36.428L96.7986 38.7758L94.931 41.1236C95.0386 41.2092 95.1348 41.321 95.2053 41.5937L98.1097 40.8425ZM96.7986 38.7758L98.6924 36.4492C97.4658 35.4507 96.0074 34.9981 94.4875 34.9981V37.9981V40.9981C94.775 40.9981 94.8573 41.0639 94.9048 41.1025L96.7986 38.7758ZM94.4875 37.9981V34.9981C92.9475 34.9981 91.4957 35.4788 90.2767 36.4762L92.1764 38.7981L94.0761 41.1199C94.1608 41.0507 94.2497 40.9981 94.4875 40.9981V37.9981ZM92.1764 38.7981L90.2767 36.4762C89.1155 37.4263 88.343 38.6684 87.9511 40.0892L90.8431 40.887L93.735 41.6847C93.8172 41.387 93.9336 41.2365 94.0761 41.1199L92.1764 38.7981ZM100.447 32.1758H97.4465V35.1758H100.447V32.1758ZM100.447 28.9092V25.9092H97.4465V28.9092H100.447ZM114.158 28.9092H117.158V25.9092H114.158V28.9092ZM114.158 32.1758V35.1758H117.158V32.1758H114.158ZM109.158 32.1758V29.1758H106.158V32.1758H109.158ZM109.158 48.9092V51.9092H112.158V48.9092H109.158ZM105.447 48.9092H102.447V51.9092H105.447V48.9092ZM105.447 32.1758H108.447V29.1758H105.447V32.1758ZM100.447 32.1758H103.447V28.9092H100.447H97.4465V32.1758H100.447ZM100.447 28.9092V31.9092H114.158V28.9092V25.9092H100.447V28.9092ZM114.158 28.9092H111.158V32.1758H114.158H117.158V28.9092H114.158ZM114.158 32.1758V29.1758H109.158V32.1758V35.1758H114.158V32.1758ZM109.158 32.1758H106.158V48.9092H109.158H112.158V32.1758H109.158ZM109.158 48.9092V45.9092H105.447V48.9092V51.9092H109.158V48.9092ZM105.447 48.9092H108.447V32.1758H105.447H102.447V48.9092H105.447ZM105.447 32.1758V29.1758H100.447V32.1758V35.1758H105.447V32.1758ZM114.113 48.9092H111.113V51.9092H114.113V48.9092ZM114.113 35.5758V32.5758H111.113V35.5758H114.113ZM117.247 35.5758H120.247V32.5758H117.247V35.5758ZM117.247 37.9092H114.247V48.5083L119.802 39.4815L117.247 37.9092ZM119.024 36.1092L120.576 38.6769L120.583 38.6724L120.591 38.6677L119.024 36.1092ZM121.602 35.4425L124.515 34.7246L123.952 32.4425H121.602V35.4425ZM122.38 38.5981L121.476 41.4588L126.571 43.0677L125.293 37.8801L122.38 38.5981ZM118.647 39.5758L116.461 37.5211V37.5211L118.647 39.5758ZM117.602 48.9092V51.9092H120.602V48.9092H117.602ZM114.113 48.9092H117.113V35.5758H114.113H111.113V48.9092H114.113ZM114.113 35.5758V38.5758H117.247V35.5758V32.5758H114.113V35.5758ZM117.247 35.5758H114.247V37.9092H117.247H120.247V35.5758H117.247ZM117.247 37.9092L119.802 39.4815C120.048 39.0813 120.309 38.838 120.576 38.6769L119.024 36.1092L117.473 33.5414C116.317 34.2397 115.393 35.1964 114.692 36.3369L117.247 37.9092ZM119.024 36.1092L120.591 38.6677C120.772 38.5571 121.069 38.4425 121.602 38.4425V35.4425V32.4425C120.15 32.4425 118.729 32.7724 117.458 33.5506L119.024 36.1092ZM121.602 35.4425L118.689 36.1605L119.467 39.316L122.38 38.5981L125.293 37.8801L124.515 34.7246L121.602 35.4425ZM122.38 38.5981L123.283 35.7373C122.657 35.5395 122.026 35.4647 121.424 35.4647V38.4647V41.4647C121.478 41.4647 121.507 41.4681 121.515 41.4693C121.523 41.4704 121.509 41.469 121.476 41.4588L122.38 38.5981ZM121.424 38.4647V35.4647C119.565 35.4647 117.804 36.0922 116.461 37.5211L118.647 39.5758L120.832 41.6306C120.882 41.578 120.972 41.4647 121.424 41.4647V38.4647ZM118.647 39.5758L116.461 37.5211C115.084 38.9856 114.602 40.8706 114.602 42.7314H117.602H120.602C120.602 41.8663 120.816 41.6476 120.832 41.6306L118.647 39.5758ZM117.602 42.7314H114.602V48.9092H117.602H120.602V42.7314H117.602ZM117.602 48.9092V45.9092H114.113V48.9092V51.9092H117.602V48.9092ZM126.41 48.287L124.806 50.8225L124.82 50.831L124.833 50.8394L126.41 48.287ZM123.988 45.7536L121.365 47.2106L121.377 47.2323L121.39 47.2538L123.988 45.7536ZM123.988 38.7536L121.381 37.2691L121.374 37.2811L123.988 38.7536ZM126.41 36.2203L127.986 38.7727L128 38.7643L128.013 38.7559L126.41 36.2203ZM132.165 35.7314L133.327 32.9655L133.327 32.9655L132.165 35.7314ZM134.054 37.0425L131.848 39.0749L137.054 44.7279V37.0425H134.054ZM134.054 35.5758V32.5758H131.054V35.5758H134.054ZM137.099 35.5758H140.099V32.5758H137.099V35.5758ZM137.099 48.9092V51.9092H140.099V48.9092H137.099ZM134.054 48.9092H131.054V51.9092H134.054V48.9092ZM134.054 47.4425H137.054V39.9055L131.875 45.3809L134.054 47.4425ZM132.165 48.7536L133.327 51.5196L133.35 51.5098L133.373 51.4996L132.165 48.7536ZM132.076 45.5981L130.504 43.0431L130.489 43.0523L130.474 43.0616L132.076 45.5981ZM133.454 44.1981L136.038 45.722L136.047 45.7078L136.055 45.6935L133.454 44.1981ZM133.454 40.3092L130.853 41.8046L130.862 41.8189L130.87 41.8331L133.454 40.3092ZM132.076 38.887L130.474 41.4234L130.489 41.4328L130.504 41.4419L132.076 38.887ZM128.254 38.887L126.682 36.332L126.667 36.3412L126.652 36.3505L128.254 38.887ZM126.899 40.3092L129.483 41.8331L129.491 41.8189L129.499 41.8046L126.899 40.3092ZM126.899 44.1981L124.298 45.6935L124.306 45.7078L124.315 45.722L126.899 44.1981ZM128.254 45.5981L126.652 48.1345L126.667 48.1439L126.682 48.153L128.254 45.5981ZM129.743 49.2203V46.2203C129.07 46.2203 128.507 46.0563 127.986 45.7346L126.41 48.287L124.833 50.8394C126.327 51.7621 127.987 52.2203 129.743 52.2203V49.2203ZM126.41 48.287L128.013 45.7514C127.424 45.379 126.955 44.8931 126.585 44.2534L123.988 45.7536L121.39 47.2538C122.235 48.7179 123.38 49.9209 124.806 50.8225L126.41 48.287ZM123.988 45.7536L126.61 44.2967C126.276 43.6957 126.099 43.0301 126.099 42.2425H123.099H120.099C120.099 44.0031 120.514 45.6782 121.365 47.2106L123.988 45.7536ZM123.099 42.2425H126.099C126.099 41.4547 126.276 40.8034 126.601 40.2262L123.988 38.7536L121.374 37.2811C120.514 38.8075 120.099 40.4821 120.099 42.2425H123.099ZM123.988 38.7536L126.594 40.2381C126.963 39.5915 127.422 39.121 127.986 38.7727L126.41 36.2203L124.833 33.6679C123.382 34.564 122.227 35.7824 121.381 37.2691L123.988 38.7536ZM126.41 36.2203L128.013 38.7559C128.531 38.4283 129.084 38.2647 129.743 38.2647V35.2647V32.2647C127.972 32.2647 126.303 32.7382 124.806 33.6847L126.41 36.2203ZM129.743 35.2647V38.2647C130.254 38.2647 130.662 38.3538 131.004 38.4973L132.165 35.7314L133.327 32.9655C132.187 32.4867 130.981 32.2647 129.743 32.2647V35.2647ZM132.165 35.7314L131.004 38.4973C131.368 38.6502 131.635 38.8443 131.848 39.0749L134.054 37.0425L136.261 35.0101C135.436 34.1148 134.444 33.4348 133.327 32.9655L132.165 35.7314ZM134.054 37.0425H137.054V35.5758H134.054H131.054V37.0425H134.054ZM134.054 35.5758V38.5758H137.099V35.5758V32.5758H134.054V35.5758ZM137.099 35.5758H134.099V48.9092H137.099H140.099V35.5758H137.099ZM137.099 48.9092V45.9092H134.054V48.9092V51.9092H137.099V48.9092ZM134.054 48.9092H137.054V47.4425H134.054H131.054V48.9092H134.054ZM134.054 47.4425L131.875 45.3809C131.651 45.6179 131.359 45.831 130.957 46.0077L132.165 48.7536L133.373 51.4996C134.453 51.0244 135.421 50.3634 136.234 49.5041L134.054 47.4425ZM132.165 48.7536L131.004 45.9877C130.662 46.1312 130.254 46.2203 129.743 46.2203V49.2203V52.2203C130.981 52.2203 132.187 51.9983 133.327 51.5196L132.165 48.7536ZM130.165 46.1314V49.1314C131.403 49.1314 132.603 48.8137 133.678 48.1345L132.076 45.5981L130.474 43.0616C130.424 43.0935 130.35 43.1314 130.165 43.1314V46.1314ZM132.076 45.5981L133.649 48.153C134.638 47.5444 135.446 46.7257 136.038 45.722L133.454 44.1981L130.87 42.6741C130.781 42.826 130.671 42.9406 130.504 43.0431L132.076 45.5981ZM133.454 44.1981L136.055 45.6935C136.668 44.6272 136.965 43.4564 136.965 42.2425H133.965H130.965C130.965 42.4509 130.922 42.5838 130.853 42.7027L133.454 44.1981ZM133.965 42.2425H136.965C136.965 41.0289 136.668 39.8527 136.038 38.7852L133.454 40.3092L130.87 41.8331C130.922 41.9212 130.965 42.0339 130.965 42.2425H133.965ZM133.454 40.3092L136.055 38.8138C135.467 37.7913 134.656 36.9516 133.649 36.332L132.076 38.887L130.504 41.4419C130.653 41.5334 130.76 41.6419 130.853 41.8046L133.454 40.3092ZM132.076 38.887L133.678 36.3505C132.613 35.6779 131.424 35.3536 130.188 35.3536V38.3536V41.3536C130.344 41.3536 130.413 41.3849 130.474 41.4234L132.076 38.887ZM130.188 38.3536V35.3536C128.949 35.3536 127.756 35.6711 126.682 36.332L128.254 38.887L129.826 41.4419C129.908 41.3917 130.004 41.3536 130.188 41.3536V38.3536ZM128.254 38.887L126.652 36.3505C125.665 36.9738 124.875 37.8098 124.298 38.8138L126.899 40.3092L129.499 41.8046C129.604 41.6234 129.717 41.5113 129.856 41.4234L128.254 38.887ZM126.899 40.3092L124.315 38.7852C123.685 39.8527 123.387 41.0289 123.387 42.2425H126.387H129.387C129.387 42.0339 129.431 41.9212 129.483 41.8331L126.899 40.3092ZM126.387 42.2425H123.387C123.387 43.4564 123.685 44.6272 124.298 45.6935L126.899 44.1981L129.499 42.7027C129.431 42.5838 129.387 42.4509 129.387 42.2425H126.387ZM126.899 44.1981L124.315 45.722C124.896 46.7074 125.683 47.5224 126.652 48.1345L128.254 45.5981L129.856 43.0616C129.699 42.9627 129.583 42.8443 129.483 42.6741L126.899 44.1981ZM128.254 45.5981L126.682 48.153C127.745 48.8075 128.929 49.1314 130.165 49.1314V46.1314V43.1314C130.009 43.1314 129.918 43.0997 129.826 43.0431L128.254 45.5981ZM143.194 48.3536L141.672 50.9385L141.68 50.943L141.687 50.9475L143.194 48.3536ZM140.617 45.7981L138.032 47.3207L138.036 47.3285L138.041 47.3363L140.617 45.7981ZM140.617 38.687L143.192 40.2252V40.2252L140.617 38.687ZM143.194 36.1314L141.687 33.5375L141.68 33.542L141.672 33.5465L143.194 36.1314ZM149.461 35.6425L150.514 32.8335L149.461 35.6425ZM151.661 36.9981L154.569 37.7339L155.005 36.0116L153.704 34.8015L151.661 36.9981ZM150.728 40.687L148.134 42.1948L151.832 48.5545L153.636 41.4228L150.728 40.687ZM149.194 39.0425L147.43 41.4687L147.448 41.482L147.467 41.495L149.194 39.0425ZM144.928 38.8647L143.384 36.2923L143.37 36.3009L143.355 36.3098L144.928 38.8647ZM143.55 40.287L146.134 41.8109L146.142 41.7967L146.151 41.7824L143.55 40.287ZM144.928 45.6203L143.355 48.1753L143.37 48.1841L143.384 48.1928L144.928 45.6203ZM149.194 45.4647L150.922 47.9172L150.941 47.9042L150.959 47.8909L149.194 45.4647ZM150.728 43.7981L153.636 43.0622L151.832 35.9306L148.134 42.2902L150.728 43.7981ZM151.661 47.487L153.704 49.6835L155.005 48.4735L154.569 46.7511L151.661 47.487ZM149.461 48.8425L148.408 46.0335L149.461 48.8425ZM146.817 49.3092V46.3092C146.006 46.3092 145.322 46.1199 144.702 45.7597L143.194 48.3536L141.687 50.9475C143.26 51.8614 144.991 52.3092 146.817 52.3092V49.3092ZM143.194 48.3536L144.717 45.7687C144.064 45.3841 143.569 44.8903 143.192 44.2598L140.617 45.7981L138.041 47.3363C138.939 48.8392 140.162 50.0491 141.672 50.9385L143.194 48.3536ZM140.617 45.7981L143.202 44.2755C142.844 43.6682 142.661 43.011 142.661 42.2425H139.661H136.661C136.661 44.0518 137.115 45.765 138.032 47.3207L140.617 45.7981ZM139.661 42.2425H142.661C142.661 41.4526 142.847 40.8034 143.192 40.2252L140.617 38.687L138.041 37.1487C137.112 38.7038 136.661 40.425 136.661 42.2425H139.661ZM140.617 38.687L143.192 40.2252C143.569 39.5947 144.064 39.1009 144.717 38.7163L143.194 36.1314L141.672 33.5465C140.162 34.436 138.939 35.6459 138.041 37.1487L140.617 38.687ZM143.194 36.1314L144.702 38.7253C145.322 38.3651 146.006 38.1758 146.817 38.1758V35.1758V32.1758C144.991 32.1758 143.26 32.6236 141.687 33.5375L143.194 36.1314ZM146.817 35.1758V38.1758C147.41 38.1758 147.933 38.2733 148.408 38.4515L149.461 35.6425L150.514 32.8335C149.33 32.3895 148.09 32.1758 146.817 32.1758V35.1758ZM149.461 35.6425L148.408 38.4515C148.877 38.6277 149.273 38.8738 149.618 39.1946L151.661 36.9981L153.704 34.8015C152.775 33.9371 151.704 33.2796 150.514 32.8335L149.461 35.6425ZM151.661 36.9981L148.753 36.2622L147.819 39.9511L150.728 40.687L153.636 41.4228L154.569 37.7339L151.661 36.9981ZM150.728 40.687L153.321 39.1791C152.716 38.1386 151.898 37.2774 150.922 36.5901L149.194 39.0425L147.467 41.495C147.795 41.7261 147.998 41.9612 148.134 42.1948L150.728 40.687ZM149.194 39.0425L150.959 36.6163C149.76 35.744 148.377 35.3314 146.928 35.3314V38.3314V41.3314C147.197 41.3314 147.326 41.3929 147.43 41.4687L149.194 39.0425ZM146.928 38.3314V35.3314C145.684 35.3314 144.477 35.6368 143.384 36.2923L144.928 38.8647L146.471 41.4372C146.564 41.3816 146.69 41.3314 146.928 41.3314V38.3314ZM144.928 38.8647L143.355 36.3098C142.349 36.9294 141.537 37.769 140.949 38.7915L143.55 40.287L146.151 41.7824C146.244 41.6197 146.351 41.5112 146.5 41.4197L144.928 38.8647ZM143.55 40.287L140.966 38.763C140.331 39.8402 140.039 41.0261 140.039 42.2425H143.039H146.039C146.039 42.007 146.088 41.8893 146.134 41.8109L143.55 40.287ZM143.039 42.2425H140.039C140.039 43.4564 140.336 44.6272 140.949 45.6935L143.55 44.1981L146.151 42.7027C146.082 42.5838 146.039 42.4509 146.039 42.2425H143.039ZM143.55 44.1981L140.949 45.6935C141.537 46.716 142.349 47.5556 143.355 48.1753L144.928 45.6203L146.5 43.0653C146.351 42.9738 146.244 42.8653 146.151 42.7027L143.55 44.1981ZM144.928 45.6203L143.384 48.1928C144.477 48.8482 145.684 49.1536 146.928 49.1536V46.1536V43.1536C146.69 43.1536 146.564 43.1035 146.471 43.0478L144.928 45.6203ZM146.928 46.1536V49.1536C148.355 49.1536 149.725 48.7608 150.922 47.9172L149.194 45.4647L147.467 43.0123C147.36 43.0872 147.219 43.1536 146.928 43.1536V46.1536ZM149.194 45.4647L150.959 47.8909C151.916 47.1949 152.722 46.336 153.321 45.3059L150.728 43.7981L148.134 42.2902C147.992 42.5342 147.777 42.7864 147.43 43.0385L149.194 45.4647ZM150.728 43.7981L147.819 44.5339L148.753 48.2228L151.661 47.487L154.569 46.7511L153.636 43.0622L150.728 43.7981ZM151.661 47.487L149.618 45.2904C149.273 45.6112 148.877 45.8574 148.408 46.0335L149.461 48.8425L150.514 51.6515C151.704 51.2054 152.775 50.5479 153.704 49.6835L151.661 47.487ZM149.461 48.8425L148.408 46.0335C147.933 46.2117 147.41 46.3092 146.817 46.3092V49.3092V52.3092C148.09 52.3092 149.33 52.0956 150.514 51.6515L149.461 48.8425ZM162.717 48.9092L160.318 50.7115L161.218 51.9092H162.717V48.9092ZM157.206 41.5758L154.812 39.7673L153.449 41.571L154.807 43.3782L157.206 41.5758ZM161.739 35.5758V32.5758H160.246L159.345 33.7673L161.739 35.5758ZM165.539 35.5758L167.906 37.4183L171.675 32.5758H165.539V35.5758ZM161.094 41.287L158.727 39.4445L157.312 41.2629L158.704 43.0992L161.094 41.287ZM166.872 48.9092V51.9092H172.911L169.263 47.0969L166.872 48.9092ZM153.894 48.9092H150.894V51.9092H153.894V48.9092ZM153.894 27.5758V24.5758H150.894V27.5758H153.894ZM157.383 27.5758H160.383V24.5758H157.383V27.5758ZM157.383 48.9092V51.9092H160.383V48.9092H157.383ZM162.717 48.9092L165.115 47.1069L159.604 39.7735L157.206 41.5758L154.807 43.3782L160.318 50.7115L162.717 48.9092ZM157.206 41.5758L159.599 43.3843L164.132 37.3843L161.739 35.5758L159.345 33.7673L154.812 39.7673L157.206 41.5758ZM161.739 35.5758V38.5758H165.539V35.5758V32.5758H161.739V35.5758ZM165.539 35.5758L163.171 33.7334L158.727 39.4445L161.094 41.287L163.462 43.1294L167.906 37.4183L165.539 35.5758ZM161.094 41.287L158.704 43.0992L164.481 50.7214L166.872 48.9092L169.263 47.0969L163.485 39.4747L161.094 41.287ZM166.872 48.9092V45.9092H162.717V48.9092V51.9092H166.872V48.9092ZM153.894 48.9092H156.894V27.5758H153.894H150.894V48.9092H153.894ZM153.894 27.5758V30.5758H157.383V27.5758V24.5758H153.894V27.5758ZM157.383 27.5758H154.383V48.9092H157.383H160.383V27.5758H157.383ZM157.383 48.9092V45.9092H153.894V48.9092V51.9092H157.383V48.9092ZM168.551 48.9092H165.551V51.9092H168.551V48.9092ZM168.551 35.5758V32.5758H165.551V35.5758H168.551ZM171.684 35.5758H174.684V32.5758H171.684V35.5758ZM171.684 37.9092H168.684V48.5083L174.239 39.4815L171.684 37.9092ZM173.462 36.1092L175.013 38.6769L175.021 38.6724L175.028 38.6677L173.462 36.1092ZM176.04 35.4425L178.952 34.7246L178.39 32.4425H176.04V35.4425ZM176.817 38.5981L175.914 41.4588L181.009 43.0677L179.73 37.8801L176.817 38.5981ZM173.084 39.5758L170.898 37.5211V37.5211L173.084 39.5758ZM172.04 48.9092V51.9092H175.04V48.9092H172.04ZM168.551 48.9092H171.551V35.5758H168.551H165.551V48.9092H168.551ZM168.551 35.5758V38.5758H171.684V35.5758V32.5758H168.551V35.5758ZM171.684 35.5758H168.684V37.9092H171.684H174.684V35.5758H171.684ZM171.684 37.9092L174.239 39.4815C174.485 39.0813 174.747 38.838 175.013 38.6769L173.462 36.1092L171.91 33.5414C170.755 34.2397 169.831 35.1964 169.129 36.3369L171.684 37.9092ZM173.462 36.1092L175.028 38.6677C175.209 38.5571 175.507 38.4425 176.04 38.4425V35.4425V32.4425C174.587 32.4425 173.166 32.7724 171.895 33.5506L173.462 36.1092ZM176.04 35.4425L173.127 36.1605L173.905 39.316L176.817 38.5981L179.73 37.8801L178.952 34.7246L176.04 35.4425ZM176.817 38.5981L177.721 35.7373C177.094 35.5395 176.463 35.4647 175.862 35.4647V38.4647V41.4647C175.915 41.4647 175.944 41.4681 175.953 41.4693C175.961 41.4704 175.946 41.469 175.914 41.4588L176.817 38.5981ZM175.862 38.4647V35.4647C174.003 35.4647 172.241 36.0922 170.898 37.5211L173.084 39.5758L175.27 41.6306C175.319 41.578 175.41 41.4647 175.862 41.4647V38.4647ZM173.084 39.5758L170.898 37.5211C169.522 38.9856 169.04 40.8706 169.04 42.7314H172.04H175.04C175.04 41.8663 175.254 41.6476 175.27 41.6306L173.084 39.5758ZM172.04 42.7314H169.04V48.9092H172.04H175.04V42.7314H172.04ZM172.04 48.9092V45.9092H168.551V48.9092V51.9092H172.04V48.9092ZM180.462 48.9092H177.462V51.9092H180.462V48.9092ZM180.462 46.0203V43.0203H177.462V46.0203H180.462ZM184.796 46.0203V49.0203H187.796V46.0203H184.796ZM184.796 33.3981H187.796V28.5328L183.449 30.7175L184.796 33.3981ZM180.462 35.5758H177.462V40.4411L181.81 38.2564L180.462 35.5758ZM180.462 32.1536L179.118 29.4719L177.462 30.3019V32.1536H180.462ZM188.218 28.2647H191.218V23.4044L186.873 25.583L188.218 28.2647ZM188.218 46.0203H185.218V49.0203H188.218V46.0203ZM191.663 46.0203H194.663V43.0203H191.663V46.0203ZM191.663 48.9092V51.9092H194.663V48.9092H191.663ZM180.462 48.9092H183.462V46.0203H180.462H177.462V48.9092H180.462ZM180.462 46.0203V49.0203H184.796V46.0203V43.0203H180.462V46.0203ZM184.796 46.0203H187.796V33.3981H184.796H181.796V46.0203H184.796ZM184.796 33.3981L183.449 30.7175L179.115 32.8953L180.462 35.5758L181.81 38.2564L186.143 36.0786L184.796 33.3981ZM180.462 35.5758H183.462V32.1536H180.462H177.462V35.5758H180.462ZM180.462 32.1536L181.807 34.8354L189.563 30.9465L188.218 28.2647L186.873 25.583L179.118 29.4719L180.462 32.1536ZM188.218 28.2647H185.218V46.0203H188.218H191.218V28.2647H188.218ZM188.218 46.0203V49.0203H191.663V46.0203V43.0203H188.218V46.0203ZM191.663 46.0203H188.663V48.9092H191.663H194.663V46.0203H191.663ZM191.663 48.9092V45.9092H180.462V48.9092V51.9092H191.663V48.9092ZM197.119 48.9092H194.119V51.9092H197.119V48.9092ZM197.119 46.0203V43.0203H194.119V46.0203H197.119ZM201.452 46.0203V49.0203H204.452V46.0203H201.452ZM201.452 33.3981H204.452V28.5328L200.105 30.7175L201.452 33.3981ZM197.119 35.5758H194.119V40.4411L198.466 38.2564L197.119 35.5758ZM197.119 32.1536L195.774 29.4719L194.119 30.3019V32.1536H197.119ZM204.874 28.2647H207.874V23.4044L203.53 25.583L204.874 28.2647ZM204.874 46.0203H201.874V49.0203H204.874V46.0203ZM208.319 46.0203H211.319V43.0203H208.319V46.0203ZM208.319 48.9092V51.9092H211.319V48.9092H208.319ZM197.119 48.9092H200.119V46.0203H197.119H194.119V48.9092H197.119ZM197.119 46.0203V49.0203H201.452V46.0203V43.0203H197.119V46.0203ZM201.452 46.0203H204.452V33.3981H201.452H198.452V46.0203H201.452ZM201.452 33.3981L200.105 30.7175L195.772 32.8953L197.119 35.5758L198.466 38.2564L202.799 36.0786L201.452 33.3981ZM197.119 35.5758H200.119V32.1536H197.119H194.119V35.5758H197.119ZM197.119 32.1536L198.463 34.8354L206.219 30.9465L204.874 28.2647L203.53 25.583L195.774 29.4719L197.119 32.1536ZM204.874 28.2647H201.874V46.0203H204.874H207.874V28.2647H204.874ZM204.874 46.0203V49.0203H208.319V46.0203V43.0203H204.874V46.0203ZM208.319 46.0203H205.319V48.9092H208.319H211.319V46.0203H208.319ZM208.319 48.9092V45.9092H197.119V48.9092V51.9092H208.319V48.9092Z" fill="white" mask="url(#path-7-outside-1_66_541)"/>
</svg>
