<svg width="216" height="116" viewBox="0 0 216 116" fill="none" xmlns="http://www.w3.org/2000/svg">
<path d="M96.8098 3.69737L115.192 35.5392L116.49 37.7892H55.178L56.0803 35.6954C63.1856 19.2108 77.6899 7.07375 95.1692 2.98643L96.2532 2.73351L96.8098 3.69737Z" fill="#FF0000" stroke="white" stroke-width="3"/>
<path d="M108 1.5C123.679 1.485 138.656 8.0051 149.328 19.4922L150.082 20.3037L149.528 21.2637L131.122 53.124L129.823 55.373L128.524 53.124L125.096 47.1904L124.339 45.8789L124.373 45.8594L100.283 4.13477L99.144 2.16309L101.406 1.89551C103.594 1.63677 105.794 1.50446 107.998 1.5H108Z" fill="#00B050" stroke="white" stroke-width="3"/>
<path d="M153.382 24.3438C164.024 38.7011 167.253 57.2455 162.088 74.3546L161.765 75.421H121.471L122.77 73.171L150.878 24.4874L152.021 22.5079L153.382 24.3438Z" fill="#2E4A8A" stroke="white" stroke-width="3"/>
<path d="M160.821 78.2105L159.919 80.3043C152.815 96.7892 138.31 108.926 120.831 113.013L119.747 113.267L119.19 112.302L100.81 80.4605L99.5107 78.2105H160.821Z" fill="#F5D11D" stroke="white" stroke-width="3"/>
<path d="M87.4541 62.8354L90.9043 68.81L91.6758 70.145L91.6406 70.1635L115.719 111.865L116.857 113.837L114.596 114.105C112.408 114.364 110.207 114.496 108.004 114.5H108.002C92.3126 114.515 77.3276 107.986 66.6553 96.4858L65.9023 95.6743L66.4561 94.7153L84.8564 62.8354L86.1553 60.5854L87.4541 62.8354Z" fill="#B538E2" stroke="white" stroke-width="3"/>
<path d="M94.4854 40.5789L93.1855 42.8289L65.0986 91.4783L63.9541 93.4588L62.5938 91.6199C51.9705 77.2673 48.7528 58.7395 53.9141 41.6453L54.2354 40.5789H94.4854Z" fill="#9A8E8E" stroke="white" stroke-width="3"/>
<mask id="path-7-outside-1_66_520" maskUnits="userSpaceOnUse" x="0" y="62" width="216" height="35" fill="black">
<rect fill="white" y="62" width="216" height="35"/>
<path d="M3.22222 72.0833V68H20.3611V72.0833H14.1111V93H9.47222V72.0833H3.22222ZM23.6536 93V76.3333H28.0148V93H23.6536ZM25.8481 73.7778C25.1629 73.7778 24.5796 73.5463 24.0981 73.0833C23.6351 72.6019 23.4036 72.0185 23.4036 71.3333C23.4036 70.6296 23.6351 70.0463 24.0981 69.5833C24.5796 69.1204 25.1629 68.8889 25.8481 68.8889C26.5518 68.8889 27.1351 69.1204 27.5981 69.5833C28.0611 70.0463 28.2925 70.6296 28.2925 71.3333C28.2925 72.0185 28.0611 72.6019 27.5981 73.0833C27.1351 73.5463 26.5518 73.7778 25.8481 73.7778ZM32.1415 93V76.3333H36.0582V78.3056C36.6693 77.4907 37.4193 76.8796 38.3082 76.4722C39.197 76.0463 40.1322 75.8333 41.1137 75.8333C42.1322 75.8333 43.0859 76.0556 43.9748 76.5C44.8637 76.9259 45.6045 77.5556 46.197 78.3889C46.8452 77.5556 47.66 76.9259 48.6415 76.5C49.623 76.0556 50.6785 75.8333 51.8082 75.8333C53.0119 75.8333 54.1322 76.1111 55.1693 76.6667C56.2063 77.2222 57.0489 78.0278 57.6971 79.0833C58.3452 80.1389 58.6693 81.4074 58.6693 82.8889V93H54.2804V83.5C54.2804 82.4444 53.9748 81.5648 53.3637 80.8611C52.7711 80.1574 51.9656 79.8056 50.947 79.8056C50.373 79.8056 49.8267 79.9352 49.3082 80.1944C48.7896 80.4537 48.373 80.8519 48.0582 81.3889C47.7433 81.9259 47.5859 82.6111 47.5859 83.4444V93H43.197V83.5C43.197 82.7963 43.0582 82.1667 42.7804 81.6111C42.5026 81.037 42.1137 80.5926 41.6137 80.2778C41.1137 79.9444 40.5304 79.7778 39.8637 79.7778C39.3082 79.7778 38.7711 79.9167 38.2526 80.1944C37.7341 80.4537 37.3082 80.8519 36.9748 81.3889C36.66 81.9259 36.5026 82.6111 36.5026 83.4444V93H32.1415ZM70.8594 93.5C69.026 93.5 67.3964 93.1111 65.9705 92.3333C64.5631 91.5556 63.4612 90.4907 62.6649 89.1389C61.8872 87.7685 61.4983 86.2222 61.4983 84.5C61.4983 82.8519 61.8779 81.3796 62.6372 80.0833C63.4149 78.7685 64.4612 77.7315 65.776 76.9722C67.0909 76.213 68.5446 75.8333 70.1372 75.8333C71.7668 75.8333 73.2205 76.213 74.4983 76.9722C75.7946 77.713 76.8223 78.7222 77.5816 80C78.3409 81.2778 78.7205 82.7315 78.7205 84.3611V85.9444H68.3594C67.8964 85.9444 67.4427 85.9167 66.9983 85.8611C66.5538 85.8056 66.1094 85.7407 65.6649 85.6667C65.8872 86.8704 66.4705 87.8611 67.4149 88.6389C68.3594 89.4167 69.5446 89.8056 70.9705 89.8056C72.026 89.8056 72.9797 89.5833 73.8316 89.1389C74.6834 88.6944 75.3872 88.1389 75.9427 87.4722L76.9427 91.5556C76.1094 92.2037 75.1742 92.6852 74.1372 93C73.1001 93.3333 72.0075 93.5 70.8594 93.5ZM65.5538 82.9722C66.4983 82.787 67.4334 82.6944 68.3594 82.6944H71.9427C72.4427 82.6944 72.9149 82.713 73.3594 82.75C73.8038 82.787 74.2297 82.8426 74.6372 82.9167C74.3594 81.8426 73.8131 80.9815 72.9983 80.3333C72.202 79.6852 71.239 79.3611 70.1094 79.3611C68.9983 79.3611 68.0353 79.6944 67.2205 80.3611C66.4057 81.0278 65.8501 81.8981 65.5538 82.9722ZM77.5582 72.0833V68H94.697V72.0833H88.447V93H83.8082V72.0833H77.5582ZM94.6415 93V76.3333H98.5582V79.25C99.1508 78.287 99.8915 77.537 100.78 77C101.688 76.4444 102.762 76.1667 104.003 76.1667L104.975 80.1111C104.623 80 104.225 79.9444 103.78 79.9444C102.336 79.9444 101.179 80.4074 100.308 81.3333C99.4378 82.2593 99.0026 83.5741 99.0026 85.2778V93H94.6415ZM114.179 93.3889C112.66 93.3889 111.271 93 110.012 92.2222C108.753 91.4259 107.744 90.3704 106.984 89.0556C106.244 87.7222 105.873 86.2593 105.873 84.6667C105.873 83.0741 106.244 81.6204 106.984 80.3056C107.744 78.9722 108.753 77.9167 110.012 77.1389C111.271 76.3426 112.66 75.9444 114.179 75.9444C115.271 75.9444 116.281 76.1389 117.207 76.5278C118.133 76.9167 118.92 77.463 119.568 78.1667V76.3333H123.373V93H119.568V91.1667C118.92 91.8519 118.133 92.3981 117.207 92.8056C116.281 93.1944 115.271 93.3889 114.179 93.3889ZM114.707 89.5278C115.595 89.5278 116.392 89.3056 117.095 88.8611C117.818 88.4167 118.392 87.8333 118.818 87.1111C119.244 86.3704 119.457 85.5556 119.457 84.6667C119.457 83.7778 119.244 82.9722 118.818 82.25C118.392 81.5093 117.818 80.9167 117.095 80.4722C116.392 80.0278 115.605 79.8056 114.734 79.8056C113.845 79.8056 113.04 80.0278 112.318 80.4722C111.614 80.9167 111.049 81.5093 110.623 82.25C110.197 82.9722 109.984 83.7778 109.984 84.6667C109.984 85.5556 110.197 86.3704 110.623 87.1111C111.049 87.8333 111.614 88.4167 112.318 88.8611C113.04 89.3056 113.836 89.5278 114.707 89.5278ZM135.521 93.5C133.873 93.5 132.363 93.1019 130.993 92.3056C129.641 91.5093 128.567 90.4444 127.771 89.1111C126.975 87.7593 126.576 86.2778 126.576 84.6667C126.576 83.037 126.975 81.5556 127.771 80.2222C128.567 78.8889 129.641 77.8241 130.993 77.0278C132.363 76.2315 133.873 75.8333 135.521 75.8333C136.688 75.8333 137.789 76.0278 138.826 76.4167C139.863 76.8056 140.78 77.3704 141.576 78.1111L140.41 82.7222C139.947 81.9259 139.308 81.2407 138.493 80.6667C137.678 80.0741 136.734 79.7778 135.66 79.7778C134.734 79.7778 133.9 80 133.16 80.4444C132.438 80.8889 131.863 81.4815 131.438 82.2222C131.012 82.9444 130.799 83.7593 130.799 84.6667C130.799 85.5556 131.012 86.3704 131.438 87.1111C131.863 87.8519 132.438 88.4444 133.16 88.8889C133.9 89.3333 134.734 89.5556 135.66 89.5556C136.734 89.5556 137.678 89.2685 138.493 88.6944C139.308 88.1019 139.947 87.4074 140.41 86.6111L141.576 91.2222C140.78 91.963 139.863 92.5278 138.826 92.9167C137.789 93.3056 136.688 93.5 135.521 93.5ZM155.396 93L148.507 83.8333L154.174 76.3333H158.924L153.368 83.4722L160.59 93H155.396ZM144.368 93V66.3333H148.729V93H144.368ZM162.688 93V76.3333H166.605V79.25C167.198 78.287 167.938 77.537 168.827 77C169.735 76.4444 170.809 76.1667 172.049 76.1667L173.022 80.1111C172.67 80 172.272 79.9444 171.827 79.9444C170.383 79.9444 169.225 80.4074 168.355 81.3333C167.485 82.2593 167.049 83.5741 167.049 85.2778V93H162.688ZM177.578 93V89.3889H182.995V73.6111L177.578 76.3333V72.0556L187.273 67.1944V89.3889H191.578V93H177.578ZM198.398 93V89.3889H203.815V73.6111L198.398 76.3333V72.0556L208.093 67.1944V89.3889H212.398V93H198.398Z"/>
</mask>
<path d="M3.22222 72.0833V68H20.3611V72.0833H14.1111V93H9.47222V72.0833H3.22222ZM23.6536 93V76.3333H28.0148V93H23.6536ZM25.8481 73.7778C25.1629 73.7778 24.5796 73.5463 24.0981 73.0833C23.6351 72.6019 23.4036 72.0185 23.4036 71.3333C23.4036 70.6296 23.6351 70.0463 24.0981 69.5833C24.5796 69.1204 25.1629 68.8889 25.8481 68.8889C26.5518 68.8889 27.1351 69.1204 27.5981 69.5833C28.0611 70.0463 28.2925 70.6296 28.2925 71.3333C28.2925 72.0185 28.0611 72.6019 27.5981 73.0833C27.1351 73.5463 26.5518 73.7778 25.8481 73.7778ZM32.1415 93V76.3333H36.0582V78.3056C36.6693 77.4907 37.4193 76.8796 38.3082 76.4722C39.197 76.0463 40.1322 75.8333 41.1137 75.8333C42.1322 75.8333 43.0859 76.0556 43.9748 76.5C44.8637 76.9259 45.6045 77.5556 46.197 78.3889C46.8452 77.5556 47.66 76.9259 48.6415 76.5C49.623 76.0556 50.6785 75.8333 51.8082 75.8333C53.0119 75.8333 54.1322 76.1111 55.1693 76.6667C56.2063 77.2222 57.0489 78.0278 57.6971 79.0833C58.3452 80.1389 58.6693 81.4074 58.6693 82.8889V93H54.2804V83.5C54.2804 82.4444 53.9748 81.5648 53.3637 80.8611C52.7711 80.1574 51.9656 79.8056 50.947 79.8056C50.373 79.8056 49.8267 79.9352 49.3082 80.1944C48.7896 80.4537 48.373 80.8519 48.0582 81.3889C47.7433 81.9259 47.5859 82.6111 47.5859 83.4444V93H43.197V83.5C43.197 82.7963 43.0582 82.1667 42.7804 81.6111C42.5026 81.037 42.1137 80.5926 41.6137 80.2778C41.1137 79.9444 40.5304 79.7778 39.8637 79.7778C39.3082 79.7778 38.7711 79.9167 38.2526 80.1944C37.7341 80.4537 37.3082 80.8519 36.9748 81.3889C36.66 81.9259 36.5026 82.6111 36.5026 83.4444V93H32.1415ZM70.8594 93.5C69.026 93.5 67.3964 93.1111 65.9705 92.3333C64.5631 91.5556 63.4612 90.4907 62.6649 89.1389C61.8872 87.7685 61.4983 86.2222 61.4983 84.5C61.4983 82.8519 61.8779 81.3796 62.6372 80.0833C63.4149 78.7685 64.4612 77.7315 65.776 76.9722C67.0909 76.213 68.5446 75.8333 70.1372 75.8333C71.7668 75.8333 73.2205 76.213 74.4983 76.9722C75.7946 77.713 76.8223 78.7222 77.5816 80C78.3409 81.2778 78.7205 82.7315 78.7205 84.3611V85.9444H68.3594C67.8964 85.9444 67.4427 85.9167 66.9983 85.8611C66.5538 85.8056 66.1094 85.7407 65.6649 85.6667C65.8872 86.8704 66.4705 87.8611 67.4149 88.6389C68.3594 89.4167 69.5446 89.8056 70.9705 89.8056C72.026 89.8056 72.9797 89.5833 73.8316 89.1389C74.6834 88.6944 75.3872 88.1389 75.9427 87.4722L76.9427 91.5556C76.1094 92.2037 75.1742 92.6852 74.1372 93C73.1001 93.3333 72.0075 93.5 70.8594 93.5ZM65.5538 82.9722C66.4983 82.787 67.4334 82.6944 68.3594 82.6944H71.9427C72.4427 82.6944 72.9149 82.713 73.3594 82.75C73.8038 82.787 74.2297 82.8426 74.6372 82.9167C74.3594 81.8426 73.8131 80.9815 72.9983 80.3333C72.202 79.6852 71.239 79.3611 70.1094 79.3611C68.9983 79.3611 68.0353 79.6944 67.2205 80.3611C66.4057 81.0278 65.8501 81.8981 65.5538 82.9722ZM77.5582 72.0833V68H94.697V72.0833H88.447V93H83.8082V72.0833H77.5582ZM94.6415 93V76.3333H98.5582V79.25C99.1508 78.287 99.8915 77.537 100.78 77C101.688 76.4444 102.762 76.1667 104.003 76.1667L104.975 80.1111C104.623 80 104.225 79.9444 103.78 79.9444C102.336 79.9444 101.179 80.4074 100.308 81.3333C99.4378 82.2593 99.0026 83.5741 99.0026 85.2778V93H94.6415ZM114.179 93.3889C112.66 93.3889 111.271 93 110.012 92.2222C108.753 91.4259 107.744 90.3704 106.984 89.0556C106.244 87.7222 105.873 86.2593 105.873 84.6667C105.873 83.0741 106.244 81.6204 106.984 80.3056C107.744 78.9722 108.753 77.9167 110.012 77.1389C111.271 76.3426 112.66 75.9444 114.179 75.9444C115.271 75.9444 116.281 76.1389 117.207 76.5278C118.133 76.9167 118.92 77.463 119.568 78.1667V76.3333H123.373V93H119.568V91.1667C118.92 91.8519 118.133 92.3981 117.207 92.8056C116.281 93.1944 115.271 93.3889 114.179 93.3889ZM114.707 89.5278C115.595 89.5278 116.392 89.3056 117.095 88.8611C117.818 88.4167 118.392 87.8333 118.818 87.1111C119.244 86.3704 119.457 85.5556 119.457 84.6667C119.457 83.7778 119.244 82.9722 118.818 82.25C118.392 81.5093 117.818 80.9167 117.095 80.4722C116.392 80.0278 115.605 79.8056 114.734 79.8056C113.845 79.8056 113.04 80.0278 112.318 80.4722C111.614 80.9167 111.049 81.5093 110.623 82.25C110.197 82.9722 109.984 83.7778 109.984 84.6667C109.984 85.5556 110.197 86.3704 110.623 87.1111C111.049 87.8333 111.614 88.4167 112.318 88.8611C113.04 89.3056 113.836 89.5278 114.707 89.5278ZM135.521 93.5C133.873 93.5 132.363 93.1019 130.993 92.3056C129.641 91.5093 128.567 90.4444 127.771 89.1111C126.975 87.7593 126.576 86.2778 126.576 84.6667C126.576 83.037 126.975 81.5556 127.771 80.2222C128.567 78.8889 129.641 77.8241 130.993 77.0278C132.363 76.2315 133.873 75.8333 135.521 75.8333C136.688 75.8333 137.789 76.0278 138.826 76.4167C139.863 76.8056 140.78 77.3704 141.576 78.1111L140.41 82.7222C139.947 81.9259 139.308 81.2407 138.493 80.6667C137.678 80.0741 136.734 79.7778 135.66 79.7778C134.734 79.7778 133.9 80 133.16 80.4444C132.438 80.8889 131.863 81.4815 131.438 82.2222C131.012 82.9444 130.799 83.7593 130.799 84.6667C130.799 85.5556 131.012 86.3704 131.438 87.1111C131.863 87.8519 132.438 88.4444 133.16 88.8889C133.9 89.3333 134.734 89.5556 135.66 89.5556C136.734 89.5556 137.678 89.2685 138.493 88.6944C139.308 88.1019 139.947 87.4074 140.41 86.6111L141.576 91.2222C140.78 91.963 139.863 92.5278 138.826 92.9167C137.789 93.3056 136.688 93.5 135.521 93.5ZM155.396 93L148.507 83.8333L154.174 76.3333H158.924L153.368 83.4722L160.59 93H155.396ZM144.368 93V66.3333H148.729V93H144.368ZM162.688 93V76.3333H166.605V79.25C167.198 78.287 167.938 77.537 168.827 77C169.735 76.4444 170.809 76.1667 172.049 76.1667L173.022 80.1111C172.67 80 172.272 79.9444 171.827 79.9444C170.383 79.9444 169.225 80.4074 168.355 81.3333C167.485 82.2593 167.049 83.5741 167.049 85.2778V93H162.688ZM177.578 93V89.3889H182.995V73.6111L177.578 76.3333V72.0556L187.273 67.1944V89.3889H191.578V93H177.578ZM198.398 93V89.3889H203.815V73.6111L198.398 76.3333V72.0556L208.093 67.1944V89.3889H212.398V93H198.398Z" fill="#2E4A8A"/>
<path d="M3.22222 72.0833H0.222222V75.0833H3.22222V72.0833ZM3.22222 68V65H0.222222V68H3.22222ZM20.3611 68H23.3611V65H20.3611V68ZM20.3611 72.0833V75.0833H23.3611V72.0833H20.3611ZM14.1111 72.0833V69.0833H11.1111V72.0833H14.1111ZM14.1111 93V96H17.1111V93H14.1111ZM9.47222 93H6.47222V96H9.47222V93ZM9.47222 72.0833H12.4722V69.0833H9.47222V72.0833ZM3.22222 72.0833H6.22222V68H3.22222H0.222222V72.0833H3.22222ZM3.22222 68V71H20.3611V68V65H3.22222V68ZM20.3611 68H17.3611V72.0833H20.3611H23.3611V68H20.3611ZM20.3611 72.0833V69.0833H14.1111V72.0833V75.0833H20.3611V72.0833ZM14.1111 72.0833H11.1111V93H14.1111H17.1111V72.0833H14.1111ZM14.1111 93V90H9.47222V93V96H14.1111V93ZM9.47222 93H12.4722V72.0833H9.47222H6.47222V93H9.47222ZM9.47222 72.0833V69.0833H3.22222V72.0833V75.0833H9.47222V72.0833ZM23.6536 93H20.6536V96H23.6536V93ZM23.6536 76.3333V73.3333H20.6536V76.3333H23.6536ZM28.0148 76.3333H31.0148V73.3333H28.0148V76.3333ZM28.0148 93V96H31.0148V93H28.0148ZM24.0981 73.0833L21.9356 75.1627L21.9764 75.2051L22.0188 75.2458L24.0981 73.0833ZM24.0981 69.5833L22.0188 67.4208L21.9976 67.4412L21.9768 67.462L24.0981 69.5833ZM27.5981 69.5833L25.4768 71.7047V71.7047L27.5981 69.5833ZM27.5981 73.0833L29.7194 75.2047L29.7402 75.1839L29.7606 75.1627L27.5981 73.0833ZM23.6536 93H26.6536V76.3333H23.6536H20.6536V93H23.6536ZM23.6536 76.3333V79.3333H28.0148V76.3333V73.3333H23.6536V76.3333ZM28.0148 76.3333H25.0148V93H28.0148H31.0148V76.3333H28.0148ZM28.0148 93V90H23.6536V93V96H28.0148V93ZM25.8481 73.7778V70.7778C25.8462 70.7778 25.862 70.7777 25.8919 70.7831C25.9222 70.7886 25.9606 70.7988 26.0032 70.8157C26.0962 70.8526 26.1558 70.9001 26.1774 70.9208L24.0981 73.0833L22.0188 75.2458C23.0749 76.2614 24.4099 76.7778 25.8481 76.7778V73.7778ZM24.0981 73.0833L26.2606 71.004C26.2813 71.0256 26.3288 71.0852 26.3657 71.1782C26.3826 71.2208 26.3928 71.2592 26.3983 71.2896C26.4038 71.3194 26.4036 71.3352 26.4036 71.3333H23.4036H20.4036C20.4036 72.7715 20.92 74.1065 21.9356 75.1627L24.0981 73.0833ZM23.4036 71.3333H26.4036C26.4036 71.3146 26.4057 71.3739 26.3657 71.4746C26.3241 71.5796 26.2644 71.6597 26.2194 71.7047L24.0981 69.5833L21.9768 67.462C20.9063 68.5325 20.4036 69.8998 20.4036 71.3333H23.4036ZM24.0981 69.5833L26.1774 71.7458C26.1558 71.7666 26.0962 71.8141 26.0032 71.851C25.9606 71.8679 25.9222 71.878 25.8919 71.8836C25.862 71.889 25.8462 71.8889 25.8481 71.8889V68.8889V65.8889C24.4099 65.8889 23.0749 66.4053 22.0188 67.4208L24.0981 69.5833ZM25.8481 68.8889V71.8889C25.8668 71.8889 25.8075 71.8909 25.7068 71.851C25.6019 71.8093 25.5218 71.7496 25.4768 71.7047L27.5981 69.5833L29.7194 67.462C28.6489 66.3916 27.2816 65.8889 25.8481 65.8889V68.8889ZM27.5981 69.5833L25.4768 71.7047C25.4318 71.6597 25.3721 71.5796 25.3305 71.4746C25.2905 71.3739 25.2925 71.3146 25.2925 71.3333H28.2925H31.2925C31.2925 69.8998 30.7899 68.5325 29.7194 67.462L27.5981 69.5833ZM28.2925 71.3333H25.2925C25.2925 71.3352 25.2924 71.3194 25.2979 71.2896C25.3034 71.2592 25.3135 71.2208 25.3305 71.1782C25.3673 71.0852 25.4148 71.0256 25.4356 71.004L27.5981 73.0833L29.7606 75.1627C30.7761 74.1065 31.2925 72.7715 31.2925 71.3333H28.2925ZM27.5981 73.0833L25.4768 70.962C25.5218 70.917 25.6019 70.8574 25.7068 70.8157C25.8075 70.7757 25.8668 70.7778 25.8481 70.7778V73.7778V76.7778C27.2816 76.7778 28.6489 76.2751 29.7194 75.2047L27.5981 73.0833ZM32.1415 93H29.1415V96H32.1415V93ZM32.1415 76.3333V73.3333H29.1415V76.3333H32.1415ZM36.0582 76.3333H39.0582V73.3333H36.0582V76.3333ZM36.0582 78.3056H33.0582V87.3055L38.4582 80.1056L36.0582 78.3056ZM38.3082 76.4722L39.5581 79.1994L39.5814 79.1887L39.6045 79.1777L38.3082 76.4722ZM43.9748 76.5L42.6332 79.1833L42.6557 79.1946L42.6785 79.2054L43.9748 76.5ZM46.197 78.3889L43.7522 80.1275L46.0892 83.414L48.5651 80.2307L46.197 78.3889ZM48.6415 76.5L49.8358 79.252L49.8575 79.2426L49.879 79.2329L48.6415 76.5ZM55.1693 76.6667L56.5859 74.0222H56.5859L55.1693 76.6667ZM57.6971 79.0833L60.2536 77.5135V77.5135L57.6971 79.0833ZM58.6693 93V96H61.6693V93H58.6693ZM54.2804 93H51.2804V96H54.2804V93ZM53.3637 80.8611L51.069 82.7935L51.0837 82.811L51.0986 82.8282L53.3637 80.8611ZM49.3082 80.1944L47.9665 77.5112L47.9665 77.5112L49.3082 80.1944ZM47.5859 93V96H50.5859V93H47.5859ZM43.197 93H40.197V96H43.197V93ZM42.7804 81.6111L40.0799 82.9178L40.0884 82.9353L40.0971 82.9527L42.7804 81.6111ZM41.6137 80.2778L39.9496 82.7739L39.9822 82.7956L40.0153 82.8165L41.6137 80.2778ZM38.2526 80.1944L39.5942 82.8777L39.632 82.8588L39.6693 82.8389L38.2526 80.1944ZM36.9748 81.3889L34.4259 79.8068L34.4059 79.839L34.3867 79.8717L36.9748 81.3889ZM36.5026 93V96H39.5026V93H36.5026ZM32.1415 93H35.1415V76.3333H32.1415H29.1415V93H32.1415ZM32.1415 76.3333V79.3333H36.0582V76.3333V73.3333H32.1415V76.3333ZM36.0582 76.3333H33.0582V78.3056H36.0582H39.0582V76.3333H36.0582ZM36.0582 78.3056L38.4582 80.1056C38.7822 79.6736 39.1431 79.3896 39.5581 79.1994L38.3082 76.4722L37.0582 73.745C35.6954 74.3696 34.5564 75.3079 33.6582 76.5056L36.0582 78.3056ZM38.3082 76.4722L39.6045 79.1777C40.0905 78.9448 40.5829 78.8333 41.1137 78.8333V75.8333V72.8333C39.6815 72.8333 38.3036 73.1478 37.0118 73.7668L38.3082 76.4722ZM41.1137 75.8333V78.8333C41.6785 78.8333 42.1715 78.9524 42.6332 79.1833L43.9748 76.5L45.3165 73.8167C44.0004 73.1587 42.586 72.8333 41.1137 72.8333V75.8333ZM43.9748 76.5L42.6785 79.2054C43.0912 79.4032 43.4428 79.6924 43.7522 80.1275L46.197 78.3889L48.6419 76.6503C47.7661 75.4187 46.6362 74.4486 45.2712 73.7946L43.9748 76.5ZM46.197 78.3889L48.5651 80.2307C48.9002 79.7999 49.3092 79.4806 49.8358 79.252L48.6415 76.5L47.4472 73.748C46.0108 74.3713 44.7902 75.3112 43.829 76.5471L46.197 78.3889ZM48.6415 76.5L49.879 79.2329C50.4529 78.973 51.0842 78.8333 51.8082 78.8333V75.8333V72.8333C50.2729 72.8333 48.7931 73.1381 47.404 73.7671L48.6415 76.5ZM51.8082 75.8333V78.8333C52.5295 78.8333 53.1617 78.9945 53.7526 79.3111L55.1693 76.6667L56.5859 74.0222C55.1028 73.2277 53.4943 72.8333 51.8082 72.8333V75.8333ZM55.1693 76.6667L53.7526 79.3111C54.2961 79.6023 54.7552 80.0255 55.1405 80.6531L57.6971 79.0833L60.2536 77.5135C59.3426 76.0301 58.1165 74.8422 56.5859 74.0222L55.1693 76.6667ZM57.6971 79.0833L55.1405 80.6531C55.4463 81.1511 55.6693 81.8521 55.6693 82.8889H58.6693H61.6693C61.6693 80.9627 61.2441 79.1267 60.2536 77.5135L57.6971 79.0833ZM58.6693 82.8889H55.6693V93H58.6693H61.6693V82.8889H58.6693ZM58.6693 93V90H54.2804V93V96H58.6693V93ZM54.2804 93H57.2804V83.5H54.2804H51.2804V93H54.2804ZM54.2804 83.5H57.2804C57.2804 81.8238 56.7768 80.216 55.6288 78.8941L53.3637 80.8611L51.0986 82.8282C51.1728 82.9136 51.2804 83.065 51.2804 83.5H54.2804ZM53.3637 80.8611L55.6585 78.9287C54.4304 77.4704 52.7435 76.8056 50.947 76.8056V79.8056V82.8056C51.0291 82.8056 51.079 82.8126 51.1028 82.8172C51.1256 82.8216 51.127 82.8242 51.1143 82.8186C51.101 82.8128 51.0853 82.8038 51.0717 82.7936C51.0586 82.7837 51.0582 82.7807 51.069 82.7935L53.3637 80.8611ZM50.947 79.8056V76.8056C49.9025 76.8056 48.8973 77.0457 47.9665 77.5112L49.3082 80.1944L50.6498 82.8777C50.756 82.8246 50.8434 82.8056 50.947 82.8056V79.8056ZM49.3082 80.1944L47.9665 77.5112C46.8897 78.0496 46.056 78.8722 45.4701 79.8717L48.0582 81.3889L50.6463 82.906C50.6606 82.8815 50.6711 82.8671 50.6764 82.8604C50.6815 82.8539 50.6827 82.8533 50.6793 82.8565C50.6759 82.8597 50.6705 82.8644 50.6636 82.8692C50.6568 82.874 50.6517 82.8768 50.6498 82.8777L49.3082 80.1944ZM48.0582 81.3889L45.4701 79.8717C44.8091 80.9992 44.5859 82.2524 44.5859 83.4444H47.5859H50.5859C50.5859 82.9698 50.6775 82.8527 50.6463 82.906L48.0582 81.3889ZM47.5859 83.4444H44.5859V93H47.5859H50.5859V83.4444H47.5859ZM47.5859 93V90H43.197V93V96H47.5859V93ZM43.197 93H46.197V83.5H43.197H40.197V93H43.197ZM43.197 83.5H46.197C46.197 82.3929 45.9759 81.294 45.4637 80.2695L42.7804 81.6111L40.0971 82.9527C40.1404 83.0393 40.197 83.1997 40.197 83.5H43.197ZM42.7804 81.6111L45.4809 80.3044C44.9786 79.2663 44.2254 78.3771 43.2122 77.7391L41.6137 80.2778L40.0153 82.8165C40.0195 82.8191 40.0196 82.8193 40.0227 82.8227C40.0267 82.8274 40.0487 82.8533 40.0799 82.9178L42.7804 81.6111ZM41.6137 80.2778L43.2778 77.7816C42.2318 77.0843 41.0553 76.7778 39.8637 76.7778V79.7778V82.7778C39.9053 82.7778 39.934 82.7804 39.9516 82.7827C39.969 82.785 39.9768 82.7873 39.9771 82.7873C39.9771 82.7874 39.9728 82.7861 39.9659 82.7829C39.959 82.7797 39.9532 82.7763 39.9496 82.7739L41.6137 80.2778ZM39.8637 79.7778V76.7778C38.7847 76.7778 37.7637 77.053 36.8359 77.55L38.2526 80.1944L39.6693 82.8389C39.7785 82.7804 39.8316 82.7778 39.8637 82.7778V79.7778ZM38.2526 80.1944L36.911 77.5112C35.8514 78.0409 35.0246 78.8422 34.4259 79.8068L36.9748 81.3889L39.5237 82.971C39.5628 82.908 39.5883 82.8834 39.5929 82.8791C39.5958 82.8763 39.5964 82.8762 39.595 82.8772C39.5935 82.8782 39.5929 82.8784 39.5942 82.8777L38.2526 80.1944ZM36.9748 81.3889L34.3867 79.8717C33.7258 80.9992 33.5026 82.2524 33.5026 83.4444H36.5026H39.5026C39.5026 82.9698 39.5942 82.8527 39.5629 82.906L36.9748 81.3889ZM36.5026 83.4444H33.5026V93H36.5026H39.5026V83.4444H36.5026ZM36.5026 93V90H32.1415V93V96H36.5026V93ZM65.9705 92.3333L64.5194 94.9591L64.5267 94.9631L64.5339 94.967L65.9705 92.3333ZM62.6649 89.1389L60.0559 90.6197L60.0678 90.6407L60.08 90.6615L62.6649 89.1389ZM62.6372 80.0833L60.0551 78.5559L60.0485 78.5671L62.6372 80.0833ZM74.4983 76.9722L72.9658 79.5513L72.9877 79.5643L73.0098 79.577L74.4983 76.9722ZM77.5816 80L75.0025 81.5325V81.5325L77.5816 80ZM78.7205 85.9444V88.9444H81.7205V85.9444H78.7205ZM66.9983 85.8611L66.6262 88.8379L66.9983 85.8611ZM65.6649 85.6667L66.1581 82.7075L61.9381 82.0041L62.7148 86.2113L65.6649 85.6667ZM67.4149 88.6389L65.5078 90.9547L67.4149 88.6389ZM73.8316 89.1389L72.4439 86.4791L73.8316 89.1389ZM75.9427 87.4722L78.8566 86.7586L77.4429 80.9859L73.638 85.5517L75.9427 87.4722ZM76.9427 91.5556L78.7845 93.9236L80.319 92.7301L79.8566 90.8419L76.9427 91.5556ZM74.1372 93L73.2657 90.1294L73.2424 90.1364L73.2191 90.1439L74.1372 93ZM65.5538 82.9722L62.6618 82.1744L61.3722 86.8493L66.1311 85.9162L65.5538 82.9722ZM73.3594 82.75L73.1102 85.7396L73.1102 85.7396L73.3594 82.75ZM74.6372 82.9167L74.1005 85.8683L78.7162 86.7075L77.5416 82.1655L74.6372 82.9167ZM72.9983 80.3333L71.1044 82.66L71.1175 82.6707L71.1307 82.6811L72.9983 80.3333ZM67.2205 80.3611L69.1202 82.683L67.2205 80.3611ZM70.8594 93.5V90.5C69.4624 90.5 68.3381 90.2075 67.407 89.6996L65.9705 92.3333L64.5339 94.967C66.4547 96.0147 68.5897 96.5 70.8594 96.5V93.5ZM65.9705 92.3333L67.4215 89.7076C66.4717 89.1827 65.7666 88.4937 65.2498 87.6163L62.6649 89.1389L60.08 90.6615C61.1558 92.4878 62.6545 93.9284 64.5194 94.9591L65.9705 92.3333ZM62.6649 89.1389L65.274 87.6581C64.7759 86.7804 64.4983 85.7527 64.4983 84.5H61.4983H58.4983C58.4983 86.6917 58.9984 88.7566 60.0559 90.6197L62.6649 89.1389ZM61.4983 84.5H64.4983C64.4983 83.3316 64.7616 82.3921 65.2258 81.5995L62.6372 80.0833L60.0485 78.5671C58.9942 80.3672 58.4983 82.3721 58.4983 84.5H61.4983ZM62.6372 80.0833L65.2192 81.6107C65.7361 80.737 66.411 80.0698 67.2763 79.5702L65.776 76.9722L64.2758 74.3743C62.5115 75.3931 61.0938 76.8001 60.0551 78.5559L62.6372 80.0833ZM65.776 76.9722L67.2763 79.5702C68.1123 79.0874 69.0444 78.8333 70.1372 78.8333V75.8333V72.8333C68.0447 72.8333 66.0694 73.3385 64.2758 74.3743L65.776 76.9722ZM70.1372 75.8333V78.8333C71.281 78.8333 72.1957 79.0937 72.9658 79.5513L74.4983 76.9722L76.0307 74.3932C74.2453 73.3322 72.2526 72.8333 70.1372 72.8333V75.8333ZM74.4983 76.9722L73.0098 79.577C73.8582 80.0617 74.5093 80.7024 75.0025 81.5325L77.5816 80L80.1607 78.4675C79.1353 76.742 77.7309 75.3642 75.9867 74.3675L74.4983 76.9722ZM77.5816 80L75.0025 81.5325C75.4601 82.3026 75.7205 83.2173 75.7205 84.3611H78.7205H81.7205C81.7205 82.2457 81.2216 80.253 80.1606 78.4675L77.5816 80ZM78.7205 84.3611H75.7205V85.9444H78.7205H81.7205V84.3611H78.7205ZM78.7205 85.9444V82.9444H68.3594V85.9444V88.9444H78.7205V85.9444ZM68.3594 85.9444V82.9444C68.0166 82.9444 67.6873 82.9239 67.3704 82.8843L66.9983 85.8611L66.6262 88.8379C67.1981 88.9094 67.7762 88.9444 68.3594 88.9444V85.9444ZM66.9983 85.8611L67.3704 82.8843C66.9666 82.8338 66.5626 82.7749 66.1581 82.7075L65.6649 85.6667L65.1717 88.6258C65.6562 88.7066 66.141 88.7773 66.6262 88.8379L66.9983 85.8611ZM65.6649 85.6667L62.7148 86.2113C63.0652 88.1094 64.0177 89.7275 65.5078 90.9547L67.4149 88.6389L69.3221 86.3231C68.9233 85.9947 68.7091 85.6313 68.6151 85.122L65.6649 85.6667ZM67.4149 88.6389L65.5078 90.9547C67.0758 92.246 68.9696 92.8056 70.9705 92.8056V89.8056V86.8056C70.1195 86.8056 69.6429 86.5873 69.3221 86.3231L67.4149 88.6389ZM70.9705 89.8056V92.8056C72.4607 92.8056 73.898 92.488 75.2193 91.7986L73.8316 89.1389L72.4439 86.4791C72.0615 86.6786 71.5914 86.8056 70.9705 86.8056V89.8056ZM73.8316 89.1389L75.2193 91.7986C76.3849 91.1905 77.4121 90.3951 78.2474 89.3928L75.9427 87.4722L73.638 85.5517C73.3622 85.8827 72.982 86.1984 72.4439 86.4791L73.8316 89.1389ZM75.9427 87.4722L73.0288 88.1858L74.0288 92.2692L76.9427 91.5556L79.8566 90.8419L78.8566 86.7586L75.9427 87.4722ZM76.9427 91.5556L75.1009 89.1875C74.5653 89.6041 73.9608 89.9184 73.2657 90.1294L74.1372 93L75.0086 95.8706C76.3876 95.452 77.6535 94.8033 78.7845 93.9236L76.9427 91.5556ZM74.1372 93L73.2191 90.1439C72.4945 90.3768 71.7128 90.5 70.8594 90.5V93.5V96.5C72.3022 96.5 73.7058 96.2898 75.0552 95.8561L74.1372 93ZM65.5538 82.9722L66.1311 85.9162C66.8928 85.7668 67.6347 85.6944 68.3594 85.6944V82.6944V79.6944C67.2322 79.6944 66.1037 79.8073 64.9766 80.0283L65.5538 82.9722ZM68.3594 82.6944V85.6944H71.9427V82.6944V79.6944H68.3594V82.6944ZM71.9427 82.6944V85.6944C72.3693 85.6944 72.7579 85.7103 73.1102 85.7396L73.3594 82.75L73.6085 79.7604C73.072 79.7157 72.5161 79.6944 71.9427 79.6944V82.6944ZM73.3594 82.75L73.1102 85.7396C73.4656 85.7692 73.7952 85.8128 74.1005 85.8683L74.6372 82.9167L75.1738 79.9651C74.6643 79.8724 74.1421 79.8048 73.6085 79.7604L73.3594 82.75ZM74.6372 82.9167L77.5416 82.1655C77.1121 80.5048 76.225 79.0666 74.8658 77.9855L72.9983 80.3333L71.1307 82.6811C71.4012 82.8963 71.6067 83.1804 71.7327 83.6678L74.6372 82.9167ZM72.9983 80.3333L74.8921 78.0066C73.5062 76.8786 71.8552 76.3611 70.1094 76.3611V79.3611V82.3611C70.6228 82.3611 70.8977 82.4918 71.1044 82.66L72.9983 80.3333ZM70.1094 79.3611V76.3611C68.3471 76.3611 66.7028 76.9085 65.3208 78.0392L67.2205 80.3611L69.1202 82.683C69.3678 82.4804 69.6494 82.3611 70.1094 82.3611V79.3611ZM67.2205 80.3611L65.3208 78.0392C63.9966 79.1226 63.113 80.5389 62.6618 82.1744L65.5538 82.9722L68.4458 83.77C68.5872 83.2574 68.8147 82.9329 69.1202 82.683L67.2205 80.3611ZM77.5582 72.0833H74.5582V75.0833H77.5582V72.0833ZM77.5582 68V65H74.5582V68H77.5582ZM94.6971 68H97.6971V65H94.6971V68ZM94.6971 72.0833V75.0833H97.6971V72.0833H94.6971ZM88.4471 72.0833V69.0833H85.4471V72.0833H88.4471ZM88.4471 93V96H91.4471V93H88.4471ZM83.8082 93H80.8082V96H83.8082V93ZM83.8082 72.0833H86.8082V69.0833H83.8082V72.0833ZM77.5582 72.0833H80.5582V68H77.5582H74.5582V72.0833H77.5582ZM77.5582 68V71H94.6971V68V65H77.5582V68ZM94.6971 68H91.6971V72.0833H94.6971H97.6971V68H94.6971ZM94.6971 72.0833V69.0833H88.4471V72.0833V75.0833H94.6971V72.0833ZM88.4471 72.0833H85.4471V93H88.4471H91.4471V72.0833H88.4471ZM88.4471 93V90H83.8082V93V96H88.4471V93ZM83.8082 93H86.8082V72.0833H83.8082H80.8082V93H83.8082ZM83.8082 72.0833V69.0833H77.5582V72.0833V75.0833H83.8082V72.0833ZM94.6415 93H91.6415V96H94.6415V93ZM94.6415 76.3333V73.3333H91.6415V76.3333H94.6415ZM98.5582 76.3333H101.558V73.3333H98.5582V76.3333ZM98.5582 79.25H95.5582V89.8491L101.113 80.8223L98.5582 79.25ZM100.78 77L102.332 79.5677L102.339 79.5632L102.347 79.5586L100.78 77ZM104.003 76.1667L106.915 75.4487L106.353 73.1667H104.003V76.1667ZM104.975 80.1111L104.071 82.9719L109.166 84.5808L107.888 79.3932L104.975 80.1111ZM100.308 81.3333L98.1223 79.2786L100.308 81.3333ZM99.0026 93V96H102.003V93H99.0026ZM94.6415 93H97.6415V76.3333H94.6415H91.6415V93H94.6415ZM94.6415 76.3333V79.3333H98.5582V76.3333V73.3333H94.6415V76.3333ZM98.5582 76.3333H95.5582V79.25H98.5582H101.558V76.3333H98.5582ZM98.5582 79.25L101.113 80.8223C101.478 80.2295 101.887 79.8362 102.332 79.5677L100.78 77L99.229 74.4323C97.8956 75.2379 96.8236 76.3446 96.0032 77.6777L98.5582 79.25ZM100.78 77L102.347 79.5586C102.709 79.3368 103.221 79.1667 104.003 79.1667V76.1667V73.1667C102.302 73.1667 100.666 73.5521 99.2139 74.4414L100.78 77ZM104.003 76.1667L101.09 76.8846L102.062 80.8291L104.975 80.1111L107.888 79.3932L106.915 75.4487L104.003 76.1667ZM104.975 80.1111L105.878 77.2504C105.181 77.0303 104.471 76.9444 103.78 76.9444V79.9444V82.9444C103.979 82.9444 104.064 82.9697 104.071 82.9719L104.975 80.1111ZM103.78 79.9444V76.9444C101.632 76.9444 99.6395 77.6645 98.1223 79.2786L100.308 81.3333L102.494 83.3881C102.718 83.1503 103.039 82.9444 103.78 82.9444V79.9444ZM100.308 81.3333L98.1223 79.2786C96.5716 80.9282 96.0026 83.0762 96.0026 85.2778H99.0026H102.003C102.003 84.0719 102.304 83.5903 102.494 83.3881L100.308 81.3333ZM99.0026 85.2778H96.0026V93H99.0026H102.003V85.2778H99.0026ZM99.0026 93V90H94.6415V93V96H99.0026V93ZM110.012 92.2222L108.409 94.7578L108.422 94.7663L108.436 94.7746L110.012 92.2222ZM106.984 89.0556L104.362 90.5125L104.374 90.5342L104.386 90.5558L106.984 89.0556ZM106.984 80.3056L104.377 78.821L104.371 78.833L106.984 80.3056ZM110.012 77.1389L111.589 79.6913L111.602 79.6829L111.616 79.6745L110.012 77.1389ZM117.207 76.5278L118.368 73.7618V73.7618L117.207 76.5278ZM119.568 78.1667L117.361 80.1991L122.568 85.852V78.1667H119.568ZM119.568 76.3333V73.3333H116.568V76.3333H119.568ZM123.373 76.3333H126.373V73.3333H123.373V76.3333ZM123.373 93V96H126.373V93H123.373ZM119.568 93H116.568V96H119.568V93ZM119.568 91.1667H122.568V83.6297L117.388 89.1051L119.568 91.1667ZM117.207 92.8056L118.368 95.5715L118.392 95.5617L118.415 95.5515L117.207 92.8056ZM117.095 88.8611L115.523 86.3061L115.508 86.3153L115.494 86.3246L117.095 88.8611ZM118.818 87.1111L121.402 88.6351L121.41 88.6208L121.418 88.6065L118.818 87.1111ZM118.818 82.25L116.217 83.7454L116.225 83.7597L116.234 83.774L118.818 82.25ZM117.095 80.4722L115.494 83.0087L115.508 83.018L115.523 83.0272L117.095 80.4722ZM112.318 80.4722L110.745 77.9172L110.731 77.9264L110.716 77.9358L112.318 80.4722ZM110.623 82.25L113.207 83.774L113.216 83.7597L113.224 83.7454L110.623 82.25ZM110.623 87.1111L108.023 88.6065L108.031 88.6208L108.039 88.6351L110.623 87.1111ZM112.318 88.8611L110.716 91.3976L110.731 91.4069L110.745 91.4161L112.318 88.8611ZM114.179 93.3889V90.3889C113.202 90.3889 112.361 90.1471 111.589 89.6698L110.012 92.2222L108.436 94.7746C110.181 95.8529 112.119 96.3889 114.179 96.3889V93.3889ZM110.012 92.2222L111.616 89.6866C110.775 89.155 110.104 88.458 109.582 87.5553L106.984 89.0556L104.386 90.5558C105.384 92.2828 106.731 93.6969 108.409 94.7578L110.012 92.2222ZM106.984 89.0556L109.607 87.5986C109.125 86.731 108.873 85.7728 108.873 84.6667H105.873H102.873C102.873 86.7457 103.362 88.7135 104.362 90.5125L106.984 89.0556ZM105.873 84.6667H108.873C108.873 83.5604 109.125 82.6183 109.598 81.7781L106.984 80.3056L104.371 78.833C103.363 80.6224 102.873 82.5878 102.873 84.6667H105.873ZM106.984 80.3056L109.591 81.7901C110.111 80.8767 110.773 80.1951 111.589 79.6913L110.012 77.1389L108.436 74.5865C106.733 75.6382 105.376 77.0677 104.377 78.821L106.984 80.3056ZM110.012 77.1389L111.616 79.6745C112.385 79.1877 113.216 78.9444 114.179 78.9444V75.9444V72.9444C112.104 72.9444 110.157 73.4975 108.409 74.6033L110.012 77.1389ZM114.179 75.9444V78.9444C114.908 78.9444 115.518 79.0724 116.045 79.2937L117.207 76.5278L118.368 73.7618C117.043 73.2053 115.635 72.9444 114.179 72.9444V75.9444ZM117.207 76.5278L116.045 79.2937C116.594 79.5244 117.019 79.8277 117.361 80.1991L119.568 78.1667L121.774 76.1342C120.82 75.0982 119.671 74.3089 118.368 73.7618L117.207 76.5278ZM119.568 78.1667H122.568V76.3333H119.568H116.568V78.1667H119.568ZM119.568 76.3333V79.3333H123.373V76.3333V73.3333H119.568V76.3333ZM123.373 76.3333H120.373V93H123.373H126.373V76.3333H123.373ZM123.373 93V90H119.568V93V96H123.373V93ZM119.568 93H122.568V91.1667H119.568H116.568V93H119.568ZM119.568 91.1667L117.388 89.1051C117.035 89.4791 116.585 89.8015 115.998 90.0596L117.207 92.8056L118.415 95.5515C119.68 94.9948 120.805 94.2246 121.747 93.2283L119.568 91.1667ZM117.207 92.8056L116.045 90.0396C115.518 90.2609 114.908 90.3889 114.179 90.3889V93.3889V96.3889C115.635 96.3889 117.043 96.128 118.368 95.5715L117.207 92.8056ZM114.707 89.5278V92.5278C116.122 92.5278 117.481 92.1656 118.697 91.3976L117.095 88.8611L115.494 86.3246C115.302 86.4455 115.069 86.5278 114.707 86.5278V89.5278ZM117.095 88.8611L118.668 91.4161C119.801 90.7186 120.725 89.7832 121.402 88.6351L118.818 87.1111L116.234 85.5872C116.059 85.8834 115.834 86.1148 115.523 86.3061L117.095 88.8611ZM118.818 87.1111L121.418 88.6065C122.117 87.3921 122.457 86.0583 122.457 84.6667H119.457H116.457C116.457 85.0528 116.371 85.3487 116.217 85.6157L118.818 87.1111ZM119.457 84.6667H122.457C122.457 83.2753 122.117 81.938 121.402 80.726L118.818 82.25L116.234 83.774C116.371 84.0064 116.457 84.2803 116.457 84.6667H119.457ZM118.818 82.25L121.418 80.7546C120.745 79.5839 119.819 78.6258 118.668 77.9172L117.095 80.4722L115.523 83.0272C115.816 83.2076 116.038 83.4346 116.217 83.7454L118.818 82.25ZM117.095 80.4722L118.697 77.9358C117.492 77.1743 116.145 76.8056 114.734 76.8056V79.8056V82.8056C115.065 82.8056 115.292 82.8813 115.494 83.0087L117.095 80.4722ZM114.734 79.8056V76.8056C113.318 76.8056 111.964 77.1675 110.745 77.9172L112.318 80.4722L113.89 83.0272C114.116 82.8881 114.373 82.8056 114.734 82.8056V79.8056ZM112.318 80.4722L110.716 77.9358C109.588 78.6479 108.685 79.6025 108.023 80.7546L110.623 82.25L113.224 83.7454C113.413 83.4161 113.64 83.1854 113.92 83.0087L112.318 80.4722ZM110.623 82.25L108.039 80.726C107.324 81.938 106.984 83.2753 106.984 84.6667H109.984H112.984C112.984 84.2803 113.07 84.0064 113.207 83.774L110.623 82.25ZM109.984 84.6667H106.984C106.984 86.0583 107.324 87.3921 108.023 88.6065L110.623 87.1111L113.224 85.6157C113.07 85.3487 112.984 85.0528 112.984 84.6667H109.984ZM110.623 87.1111L108.039 88.6351C108.705 89.7649 109.606 90.6965 110.716 91.3976L112.318 88.8611L113.92 86.3246C113.622 86.1368 113.393 85.9018 113.207 85.5872L110.623 87.1111ZM112.318 88.8611L110.745 91.4161C111.953 92.1595 113.296 92.5278 114.707 92.5278V89.5278V86.5278C114.376 86.5278 114.126 86.4516 113.89 86.3061L112.318 88.8611ZM130.993 92.3056L129.47 94.8904L129.478 94.895L129.486 94.8994L130.993 92.3056ZM127.771 89.1111L125.186 90.6337L125.191 90.6415L125.195 90.6493L127.771 89.1111ZM127.771 80.2222L130.346 81.7604V81.7604L127.771 80.2222ZM130.993 77.0278L129.486 74.4339L129.478 74.4384L129.47 74.4429L130.993 77.0278ZM138.826 76.4167L139.88 73.6077V73.6077L138.826 76.4167ZM141.576 78.1111L144.485 78.847L144.921 77.1246L143.62 75.9145L141.576 78.1111ZM140.41 82.7222L137.816 84.2301L141.514 90.5897L143.318 83.4581L140.41 82.7222ZM138.493 80.6667L136.729 83.0929L136.747 83.1061L136.765 83.1191L138.493 80.6667ZM133.16 80.4444L131.616 77.872L131.602 77.8806L131.587 77.8895L133.16 80.4444ZM131.438 82.2222L134.022 83.7462L134.03 83.732L134.038 83.7176L131.438 82.2222ZM133.16 88.8889L131.587 91.4439L131.602 91.4527L131.616 91.4614L133.16 88.8889ZM138.493 88.6944L140.221 91.1469L140.239 91.1339L140.258 91.1207L138.493 88.6944ZM140.41 86.6111L143.318 85.8753L141.514 78.7436L137.816 85.1032L140.41 86.6111ZM141.576 91.2222L143.62 93.4188L144.921 92.2087L144.485 90.4864L141.576 91.2222ZM138.826 92.9167L137.773 90.1077L138.826 92.9167ZM135.521 93.5V90.5C134.38 90.5 133.394 90.2311 132.5 89.7117L130.993 92.3056L129.486 94.8994C131.333 95.9726 133.365 96.5 135.521 96.5V93.5ZM130.993 92.3056L132.516 89.7207C131.592 89.1768 130.882 88.47 130.346 87.5729L127.771 89.1111L125.195 90.6493C126.252 92.4189 127.69 93.8417 129.47 94.8904L130.993 92.3056ZM127.771 89.1111L130.356 87.5885C129.839 86.7109 129.576 85.7574 129.576 84.6667H126.576H123.576C123.576 86.7982 124.11 88.8076 125.186 90.6337L127.771 89.1111ZM126.576 84.6667H129.576C129.576 83.5508 129.842 82.6054 130.346 81.7604L127.771 80.2222L125.195 78.684C124.107 80.5057 123.576 82.5233 123.576 84.6667H126.576ZM127.771 80.2222L130.346 81.7604C130.882 80.8633 131.592 80.1566 132.516 79.6127L130.993 77.0278L129.47 74.4429C127.69 75.4916 126.252 76.9144 125.195 78.684L127.771 80.2222ZM130.993 77.0278L132.5 79.6217C133.394 79.1022 134.38 78.8333 135.521 78.8333V75.8333V72.8333C133.365 72.8333 131.333 73.3607 129.486 74.4339L130.993 77.0278ZM135.521 75.8333V78.8333C136.347 78.8333 137.091 78.9697 137.773 79.2257L138.826 76.4167L139.88 73.6077C138.488 73.0858 137.028 72.8333 135.521 72.8333V75.8333ZM138.826 76.4167L137.773 79.2257C138.45 79.4796 139.029 79.8387 139.533 80.3077L141.576 78.1111L143.62 75.9145C142.531 74.902 141.277 74.1315 139.88 73.6077L138.826 76.4167ZM141.576 78.1111L138.668 77.3753L137.501 81.9864L140.41 82.7222L143.318 83.4581L144.485 78.847L141.576 78.1111ZM140.41 82.7222L143.003 81.2144C142.306 80.0146 141.36 79.0164 140.221 78.2142L138.493 80.6667L136.765 83.1191C137.256 83.4651 137.588 83.8372 137.816 84.2301L140.41 82.7222ZM138.493 80.6667L140.258 78.2405C138.895 77.2496 137.323 76.7778 135.66 76.7778V79.7778V82.7778C136.144 82.7778 136.461 82.8985 136.729 83.0929L138.493 80.6667ZM135.66 79.7778V76.7778C134.231 76.7778 132.857 77.1276 131.616 77.872L133.16 80.4444L134.703 83.0169C134.944 82.8724 135.237 82.7778 135.66 82.7778V79.7778ZM133.16 80.4444L131.587 77.8895C130.436 78.598 129.51 79.5562 128.837 80.7268L131.438 82.2222L134.038 83.7176C134.217 83.4068 134.439 83.1798 134.732 82.9994L133.16 80.4444ZM131.438 82.2222L128.853 80.6983C128.133 81.9199 127.799 83.2688 127.799 84.6667H130.799H133.799C133.799 84.2497 133.89 83.969 134.022 83.7462L131.438 82.2222ZM130.799 84.6667H127.799C127.799 86.0583 128.138 87.3921 128.837 88.6065L131.438 87.1111L134.038 85.6157C133.885 85.3487 133.799 85.0528 133.799 84.6667H130.799ZM131.438 87.1111L128.837 88.6065C129.51 89.7772 130.436 90.7354 131.587 91.4439L133.16 88.8889L134.732 86.3339C134.439 86.1535 134.217 85.9265 134.038 85.6157L131.438 87.1111ZM133.16 88.8889L131.616 91.4614C132.857 92.2057 134.231 92.5556 135.66 92.5556V89.5556V86.5556C135.237 86.5556 134.944 86.4609 134.703 86.3164L133.16 88.8889ZM135.66 89.5556V92.5556C137.302 92.5556 138.861 92.1053 140.221 91.1469L138.493 88.6944L136.765 86.242C136.496 86.4317 136.166 86.5556 135.66 86.5556V89.5556ZM138.493 88.6944L140.258 91.1207C141.378 90.3061 142.312 89.3083 143.003 88.119L140.41 86.6111L137.816 85.1032C137.582 85.5065 137.238 85.8976 136.729 86.2682L138.493 88.6944ZM140.41 86.6111L137.501 87.347L138.668 91.9581L141.576 91.2222L144.485 90.4864L143.318 85.8753L140.41 86.6111ZM141.576 91.2222L139.533 89.0257C139.029 89.4946 138.45 89.8537 137.773 90.1077L138.826 92.9167L139.88 95.7257C141.277 95.2018 142.531 94.4313 143.62 93.4188L141.576 91.2222ZM138.826 92.9167L137.773 90.1077C137.091 90.3636 136.347 90.5 135.521 90.5V93.5V96.5C137.028 96.5 138.488 96.2475 139.88 95.7257L138.826 92.9167ZM155.396 93L152.998 94.8023L153.898 96H155.396V93ZM148.507 83.8333L146.113 82.0248L144.751 83.8285L146.109 85.6357L148.507 83.8333ZM154.174 76.3333V73.3333H152.68L151.78 74.5248L154.174 76.3333ZM158.924 76.3333L161.291 78.1758L165.06 73.3333H158.924V76.3333ZM153.368 83.4722L151 81.6298L149.585 83.4482L150.977 85.2845L153.368 83.4722ZM160.59 93V96H166.629L162.981 91.1878L160.59 93ZM144.368 93H141.368V96H144.368V93ZM144.368 66.3333V63.3333H141.368V66.3333H144.368ZM148.729 66.3333H151.729V63.3333H148.729V66.3333ZM148.729 93V96H151.729V93H148.729ZM155.396 93L157.794 91.1977L150.905 82.031L148.507 83.8333L146.109 85.6357L152.998 94.8023L155.396 93ZM148.507 83.8333L150.901 85.6418L156.567 78.1418L154.174 76.3333L151.78 74.5248L146.113 82.0248L148.507 83.8333ZM154.174 76.3333V79.3333H158.924V76.3333V73.3333H154.174V76.3333ZM158.924 76.3333L156.556 74.4909L151 81.6298L153.368 83.4722L155.736 85.3147L161.291 78.1758L158.924 76.3333ZM153.368 83.4722L150.977 85.2845L158.2 94.8122L160.59 93L162.981 91.1878L155.759 81.66L153.368 83.4722ZM160.59 93V90H155.396V93V96H160.59V93ZM144.368 93H147.368V66.3333H144.368H141.368V93H144.368ZM144.368 66.3333V69.3333H148.729V66.3333V63.3333H144.368V66.3333ZM148.729 66.3333H145.729V93H148.729H151.729V66.3333H148.729ZM148.729 93V90H144.368V93V96H148.729V93ZM162.688 93H159.688V96H162.688V93ZM162.688 76.3333V73.3333H159.688V76.3333H162.688ZM166.605 76.3333H169.605V73.3333H166.605V76.3333ZM166.605 79.25H163.605V89.8491L169.16 80.8223L166.605 79.25ZM168.827 77L170.379 79.5677L170.386 79.5632L170.394 79.5586L168.827 77ZM172.049 76.1667L174.962 75.4487L174.4 73.1667H172.049V76.1667ZM173.022 80.1111L172.118 82.9719L177.213 84.5808L175.935 79.3932L173.022 80.1111ZM168.355 81.3333L166.169 79.2786H166.169L168.355 81.3333ZM167.049 93V96H170.049V93H167.049ZM162.688 93H165.688V76.3333H162.688H159.688V93H162.688ZM162.688 76.3333V79.3333H166.605V76.3333V73.3333H162.688V76.3333ZM166.605 76.3333H163.605V79.25H166.605H169.605V76.3333H166.605ZM166.605 79.25L169.16 80.8223C169.525 80.2295 169.934 79.8362 170.379 79.5677L168.827 77L167.276 74.4323C165.942 75.2379 164.87 76.3446 164.05 77.6777L166.605 79.25ZM168.827 77L170.394 79.5586C170.756 79.3368 171.268 79.1667 172.049 79.1667V76.1667V73.1667C170.349 73.1667 168.713 73.5521 167.261 74.4414L168.827 77ZM172.049 76.1667L169.137 76.8846L170.109 80.8291L173.022 80.1111L175.935 79.3932L174.962 75.4487L172.049 76.1667ZM173.022 80.1111L173.925 77.2504C173.228 77.0303 172.518 76.9444 171.827 76.9444V79.9444V82.9444C172.026 82.9444 172.111 82.9697 172.118 82.9719L173.022 80.1111ZM171.827 79.9444V76.9444C169.679 76.9444 167.686 77.6645 166.169 79.2786L168.355 81.3333L170.541 83.3881C170.764 83.1503 171.086 82.9444 171.827 82.9444V79.9444ZM168.355 81.3333L166.169 79.2786C164.618 80.9282 164.049 83.0762 164.049 85.2778H167.049H170.049C170.049 84.0719 170.351 83.5903 170.541 83.3881L168.355 81.3333ZM167.049 85.2778H164.049V93H167.049H170.049V85.2778H167.049ZM167.049 93V90H162.688V93V96H167.049V93ZM177.578 93H174.578V96H177.578V93ZM177.578 89.3889V86.3889H174.578V89.3889H177.578ZM182.995 89.3889V92.3889H185.995V89.3889H182.995ZM182.995 73.6111H185.995V68.7459L181.648 70.9306L182.995 73.6111ZM177.578 76.3333H174.578V81.1986L178.925 79.0139L177.578 76.3333ZM177.578 72.0556L176.233 69.3738L174.578 70.2038V72.0556H177.578ZM187.273 67.1944H190.273V62.3341L185.928 64.5127L187.273 67.1944ZM187.273 89.3889H184.273V92.3889H187.273V89.3889ZM191.578 89.3889H194.578V86.3889H191.578V89.3889ZM191.578 93V96H194.578V93H191.578ZM177.578 93H180.578V89.3889H177.578H174.578V93H177.578ZM177.578 89.3889V92.3889H182.995V89.3889V86.3889H177.578V89.3889ZM182.995 89.3889H185.995V73.6111H182.995H179.995V89.3889H182.995ZM182.995 73.6111L181.648 70.9306L176.231 73.6528L177.578 76.3333L178.925 79.0139L184.342 76.2916L182.995 73.6111ZM177.578 76.3333H180.578V72.0556H177.578H174.578V76.3333H177.578ZM177.578 72.0556L178.923 74.7373L188.617 69.8762L187.273 67.1944L185.928 64.5127L176.233 69.3738L177.578 72.0556ZM187.273 67.1944H184.273V89.3889H187.273H190.273V67.1944H187.273ZM187.273 89.3889V92.3889H191.578V89.3889V86.3889H187.273V89.3889ZM191.578 89.3889H188.578V93H191.578H194.578V89.3889H191.578ZM191.578 93V90H177.578V93V96H191.578V93ZM198.398 93H195.398V96H198.398V93ZM198.398 89.3889V86.3889H195.398V89.3889H198.398ZM203.815 89.3889V92.3889H206.815V89.3889H203.815ZM203.815 73.6111H206.815V68.7459L202.468 70.9306L203.815 73.6111ZM198.398 76.3333H195.398V81.1986L199.746 79.0139L198.398 76.3333ZM198.398 72.0556L197.054 69.3738L195.398 70.2038V72.0556H198.398ZM208.093 67.1944H211.093V62.3341L206.748 64.5127L208.093 67.1944ZM208.093 89.3889H205.093V92.3889H208.093V89.3889ZM212.398 89.3889H215.398V86.3889H212.398V89.3889ZM212.398 93V96H215.398V93H212.398ZM198.398 93H201.398V89.3889H198.398H195.398V93H198.398ZM198.398 89.3889V92.3889H203.815V89.3889V86.3889H198.398V89.3889ZM203.815 89.3889H206.815V73.6111H203.815H200.815V89.3889H203.815ZM203.815 73.6111L202.468 70.9306L197.051 73.6528L198.398 76.3333L199.746 79.0139L205.162 76.2916L203.815 73.6111ZM198.398 76.3333H201.398V72.0556H198.398H195.398V76.3333H198.398ZM198.398 72.0556L199.743 74.7373L209.438 69.8762L208.093 67.1944L206.748 64.5127L197.054 69.3738L198.398 72.0556ZM208.093 67.1944H205.093V89.3889H208.093H211.093V67.1944H208.093ZM208.093 89.3889V92.3889H212.398V89.3889V86.3889H208.093V89.3889ZM212.398 89.3889H209.398V93H212.398H215.398V89.3889H212.398ZM212.398 93V90H198.398V93V96H212.398V93Z" fill="white" mask="url(#path-7-outside-1_66_520)"/>
</svg>
