<svg width="49" height="49" xmlns="http://www.w3.org/2000/svg" xmlns:xlink="http://www.w3.org/1999/xlink" xml:space="preserve" overflow="hidden"><defs><clipPath id="clip0"><rect x="0" y="0" width="49" height="49"/></clipPath></defs><g clip-path="url(#clip0)"><path d="M-22.3261 12.965C-31.7774 12.965-39.821 21.1695-42.8876 24.7388-43.6608 25.6661-43.622 27.0243-42.7971 27.906-39.6702 31.1536-31.6869 38.3023-22.3261 38.3023-12.9654 38.3023-4.99218 31.1536-1.86523 27.916-1.03001 27.0347-0.990993 25.6662-1.77475 24.7388-4.83131 21.1695-12.885 12.965-22.3261 12.965ZM-28.2482 18.314C-32.2889 21.5743-32.9217 27.4929-29.6614 31.5336-29.1096 32.2174-28.4647 32.8206-27.7455 33.3254-31.8886 31.7504-35.6561 29.3256-38.8055 26.2068-35.8397 22.9072-32.2521 20.225-28.2482 18.314ZM-16.9068 33.3254C-12.6566 30.3335-11.6366 24.4627-14.6284 20.2127-15.1296 19.5006-15.7272 18.8617-16.404 18.314-12.4011 20.2267-8.8139 22.9086-5.84682 26.2068-8.9981 29.3233-12.765 31.7478-16.9068 33.3254Z"/><path d="M44.476 24.7388C41.4596 21.1695 33.416 12.965 23.9246 12.965 14.4331 12.965 6.42973 21.1695 3.36311 24.7388 2.58991 25.6661 2.62872 27.0243 3.45359 27.906 6.58054 31.1536 14.5638 38.3023 23.9246 38.3023 33.2853 38.3023 41.2585 31.1536 44.3855 27.916 45.2207 27.0347 45.2597 25.6662 44.476 24.7388ZM18.0025 18.314C13.9618 21.5743 13.329 27.4929 16.5893 31.5336 17.1411 32.2174 17.786 32.8206 18.5052 33.3254 14.3621 31.7504 10.5946 29.3256 7.44523 26.2068 10.411 22.9072 13.9986 20.225 18.0025 18.314ZM29.3439 33.3254C33.5941 30.3335 34.6141 24.4627 31.6223 20.2127 31.1211 19.5006 30.5235 18.8617 29.8467 18.314 33.8496 20.2267 37.4368 22.9086 40.4039 26.2068 37.2526 29.3233 33.4857 31.7478 29.3439 33.3254Z"/></g></svg>